<svg width="228" height="161" viewBox="0 0 228 161" fill="none" xmlns="http://www.w3.org/2000/svg">
<g clip-path="url(#clip0_1_43)">
<path d="M0 158.409V156.089C1.00276 156.918 2.04531 157.588 3.11969 158.114C4.19407 158.64 5.30825 158.895 6.43834 158.895C8.49161 158.895 9.93207 158.226 10.7597 156.902C11.5795 155.571 11.9933 153.801 11.9933 151.593V127.606H13.768V151.593C13.768 153.674 13.4895 155.404 12.9324 156.783C12.3753 158.162 11.5476 159.174 10.4494 159.844C9.35111 160.506 8.0141 160.841 6.43834 160.841C5.23662 160.841 4.11449 160.609 3.07194 160.155C2.02939 159.693 1.00276 159.119 0 158.417L0 158.409Z" fill="white"/>
<path d="M22.387 134.908H24.2094V150.971C24.2094 153.594 24.7904 155.595 25.9523 156.982C27.1142 158.369 28.8094 159.055 31.0537 159.055C32.8841 159.055 34.4121 158.513 35.6616 157.437C36.9031 156.36 37.8422 154.941 38.4868 153.18C39.1314 151.418 39.4498 149.536 39.4498 147.52H40.7072C40.7072 150.11 40.3172 152.398 39.5453 154.391C38.7733 156.384 37.6591 157.947 36.2107 159.079C34.7623 160.211 33.0353 160.777 31.0298 160.777C29.1834 160.777 27.6236 160.394 26.3423 159.629C25.061 158.864 24.0821 157.747 23.4056 156.289C22.7292 154.822 22.3949 153.052 22.3949 150.963V134.9L22.387 134.908ZM39.4418 134.908H41.2643V160.298H39.4418V134.908Z" fill="white"/>
<path d="M60.1336 160.833C57.8575 160.833 56.0271 160.474 54.6185 159.74C53.2098 159.015 52.1673 158.05 51.4829 156.855C50.7984 155.659 50.4164 154.359 50.3369 152.956H52.3105C52.406 154.973 53.1382 156.488 54.507 157.524C55.8679 158.561 57.7461 159.071 60.1336 159.071C61.3513 159.071 62.4893 158.848 63.5557 158.393C64.6142 157.947 65.4817 157.317 66.1502 156.52C66.8187 155.723 67.1529 154.814 67.1529 153.809C67.1529 152.534 66.7152 151.529 65.8478 150.804C64.9723 150.079 63.5876 149.449 61.6776 148.931L57.7541 147.775C55.6292 147.145 54.0136 146.236 52.9074 145.056C51.7932 143.868 51.2441 142.441 51.2441 140.767C51.2441 138.822 52.0002 137.276 53.5123 136.104C55.0243 134.932 56.9742 134.35 59.3617 134.35C62.0596 134.35 64.1685 134.908 65.6886 136.024C67.2086 137.14 68.0204 138.519 68.1239 140.169H66.0547C65.8398 138.75 65.1633 137.706 64.0173 137.045C62.8713 136.375 61.3194 136.048 59.3617 136.048C57.4039 136.048 55.8361 136.558 54.7458 137.587C53.6555 138.607 53.1143 139.707 53.1143 140.879C53.1143 143.215 54.9527 144.913 58.6215 145.973L62.2983 147.081C64.5028 147.727 66.1741 148.588 67.3121 149.656C68.4502 150.724 69.0152 152.111 69.0152 153.817C69.0152 155.021 68.665 156.161 67.9806 157.229C67.2882 158.298 66.2855 159.166 64.9644 159.828C63.6512 160.49 62.0437 160.825 60.1496 160.825L60.1336 160.833Z" fill="white"/>
<path d="M74.3234 136.502V134.916H88.7122V136.502H74.3234ZM84.343 160.841C83.1891 160.841 82.1863 160.585 81.3189 160.083C80.4593 159.581 79.7829 158.84 79.3054 157.875C78.8279 156.91 78.5891 155.731 78.5891 154.343V127.526H80.3161V154.343C80.3161 157.508 81.6531 159.087 84.3112 159.087C85.0832 159.087 85.8153 158.991 86.5077 158.808C87.2001 158.616 87.9721 158.353 88.8236 158.011L89.0465 159.549C88.2904 159.948 87.5184 160.259 86.7226 160.49C85.9347 160.721 85.1309 160.841 84.3271 160.841H84.343Z" fill="white"/>
<path d="M105.568 161C103.523 161 101.684 160.426 100.037 159.278C98.3896 158.13 97.0845 156.528 96.1215 154.479C95.1585 152.43 94.681 150.063 94.681 147.36C94.681 144.506 95.1585 142.059 96.1135 140.018C97.0685 137.977 98.3658 136.407 100.013 135.315C101.661 134.214 103.507 133.672 105.568 133.672C107.406 133.672 108.99 134.079 110.303 134.9C111.616 135.721 112.683 136.813 113.487 138.192C114.291 139.564 114.848 141.126 115.15 142.864C115.452 144.61 115.508 146.403 115.309 148.253H98.4294V145.287H112.102L110.964 146.093C111.012 145.12 110.964 144.147 110.829 143.183C110.685 142.218 110.423 141.317 110.025 140.504C109.627 139.683 109.078 139.03 108.362 138.535C107.645 138.041 106.738 137.794 105.632 137.794C104.247 137.794 103.093 138.169 102.162 138.926C101.231 139.683 100.53 140.688 100.053 141.955C99.5754 143.223 99.3367 144.61 99.3367 146.116V148.189C99.3367 149.863 99.5675 151.346 100.029 152.638C100.491 153.929 101.175 154.949 102.09 155.699C103.006 156.448 104.159 156.815 105.56 156.815C106.961 156.815 108.051 156.464 108.95 155.762C109.85 155.061 110.399 154.009 110.614 152.606H115.405C115.158 154.296 114.593 155.77 113.702 157.022C112.81 158.282 111.672 159.254 110.279 159.948C108.887 160.641 107.311 160.984 105.552 160.984L105.568 161Z" fill="white"/>
<path d="M122.75 160.298V134.374H126.825L127.446 139.978V160.298H122.758H122.75ZM139.391 160.298V145.096C139.391 142.848 138.898 141.15 137.919 139.986C136.94 138.83 135.619 138.248 133.956 138.248C132.643 138.248 131.489 138.639 130.51 139.42C129.531 140.201 128.775 141.341 128.242 142.848C127.708 144.347 127.438 146.172 127.438 148.333H125.759C125.759 145.152 126.133 142.473 126.881 140.305C127.629 138.129 128.703 136.486 130.104 135.362C131.504 134.238 133.184 133.68 135.141 133.68C137.099 133.68 138.667 134.151 139.988 135.083C141.317 136.016 142.32 137.347 143.012 139.061C143.705 140.775 144.047 142.792 144.047 145.112V160.314H139.383L139.391 160.298Z" fill="white"/>
<path d="M151.997 160.298V123.452H156.685V154.072L155.181 160.298H151.997ZM163.426 161C161.882 161 160.473 160.546 159.216 159.637C157.958 158.728 156.955 157.389 156.207 155.603C155.459 153.825 155.085 151.641 155.085 149.058H156.685C156.685 150.565 156.987 151.872 157.584 152.964C158.181 154.064 158.953 154.902 159.892 155.483C160.831 156.065 161.81 156.36 162.829 156.36C164.046 156.36 165.145 155.994 166.124 155.26C167.102 154.527 167.882 153.467 168.471 152.095C169.052 150.724 169.347 149.098 169.347 147.233C169.347 145.367 169.06 143.789 168.479 142.449C167.906 141.11 167.118 140.082 166.131 139.348C165.145 138.623 164.023 138.256 162.773 138.256C161.723 138.256 160.728 138.535 159.797 139.093C158.865 139.651 158.117 140.472 157.536 141.557C156.963 142.641 156.669 143.972 156.669 145.535H155.069C155.069 142.999 155.427 140.855 156.152 139.093C156.876 137.331 157.887 135.984 159.176 135.06C160.465 134.135 161.985 133.672 163.728 133.672C165.622 133.672 167.357 134.222 168.925 135.331C170.493 136.431 171.758 138.001 172.697 140.034C173.644 142.067 174.114 144.466 174.114 147.233C174.114 149.999 173.628 152.438 172.657 154.495C171.686 156.552 170.389 158.154 168.766 159.294C167.142 160.434 165.352 161.008 163.394 161.008L163.426 161Z" fill="white"/>
<path d="M188.63 161C186.64 161 184.985 160.617 183.672 159.852C182.359 159.087 181.372 158.09 180.719 156.847C180.075 155.611 179.748 154.288 179.748 152.885C179.748 151.179 180.146 149.768 180.942 148.668C181.746 147.559 182.852 146.738 184.261 146.196C185.677 145.654 187.309 145.391 189.147 145.391C190.413 145.391 191.646 145.519 192.848 145.766C194.05 146.021 195.235 146.348 196.405 146.762V149.863C195.45 149.489 194.392 149.186 193.23 148.962C192.068 148.739 190.986 148.628 189.983 148.628C188.487 148.628 187.237 148.954 186.234 149.6C185.232 150.246 184.73 151.346 184.73 152.893C184.73 154.025 185.128 154.997 185.916 155.818C186.704 156.631 187.953 157.046 189.664 157.046C190.914 157.046 192.02 156.735 192.975 156.113C193.93 155.491 194.67 154.718 195.196 153.785C195.721 152.853 195.983 151.92 195.983 150.979H197.121C197.121 152.773 196.787 154.431 196.119 155.954C195.45 157.476 194.487 158.696 193.222 159.621C191.956 160.546 190.42 161.008 188.63 161.008V161ZM196.58 160.298L195.983 154.343V143.534C195.983 141.413 195.578 139.875 194.774 138.91C193.97 137.945 192.689 137.467 190.946 137.467C189.959 137.467 189.083 137.626 188.319 137.937C187.555 138.256 186.959 138.727 186.521 139.348C186.083 139.978 185.868 140.767 185.868 141.724H180.687C180.687 139.819 181.117 138.272 181.969 137.084C182.828 135.897 184.022 135.036 185.558 134.486C187.102 133.935 188.892 133.664 190.954 133.664C192.88 133.664 194.575 134.015 196.039 134.701C197.503 135.394 198.642 136.478 199.461 137.945C200.273 139.42 200.687 141.325 200.687 143.661V160.29H196.588L196.58 160.298Z" fill="white"/>
<path d="M218.275 161C215.967 161 214.033 160.641 212.449 159.932C210.866 159.222 209.664 158.234 208.828 156.966C208.001 155.699 207.563 154.208 207.531 152.502H211.948C212.012 153.993 212.561 155.101 213.587 155.818C214.614 156.536 216.007 156.894 217.773 156.894C218.713 156.894 219.564 156.735 220.328 156.408C221.092 156.081 221.705 155.643 222.159 155.085C222.612 154.527 222.835 153.897 222.835 153.196C222.835 152.319 222.541 151.625 221.944 151.107C221.347 150.597 220.4 150.142 219.079 149.744L214.216 147.934C212.274 147.217 210.786 146.26 209.743 145.064C208.709 143.868 208.192 142.433 208.192 140.767C208.192 138.631 209.067 136.909 210.81 135.61C212.553 134.302 214.869 133.656 217.742 133.656C220.615 133.656 223.018 134.342 224.642 135.721C226.265 137.092 227.109 138.814 227.172 140.887H222.652C222.533 139.867 222.071 139.077 221.259 138.527C220.447 137.977 219.27 137.706 217.742 137.706C216.309 137.706 215.187 138.049 214.375 138.727C213.563 139.412 213.158 140.177 213.158 141.046C213.158 142.593 214.375 143.741 216.81 144.498L221.92 146.467C223.862 147.153 225.358 148.03 226.408 149.106C227.459 150.182 227.992 151.553 227.992 153.203C227.992 154.535 227.586 155.794 226.782 156.974C225.979 158.162 224.841 159.127 223.392 159.868C221.936 160.617 220.233 160.984 218.267 160.984L218.275 161Z" fill="white"/>
<path d="M161.062 47.1457C161.062 48.1581 161.038 49.1785 160.966 50.1909C160.783 53.1325 160.33 56.0104 159.621 58.7846C157.704 66.3738 153.939 73.2296 148.838 78.8418C147.819 79.9579 146.761 81.0261 145.639 82.0465L113.988 113.751L82.3455 82.0465C81.2313 81.0261 80.1649 79.9659 79.1462 78.8418C72.1906 71.1809 67.71 61.1921 67.0176 50.1909C66.946 49.1785 66.9221 48.1581 66.9221 47.1457C66.938 21.1016 88.0039 0 113.996 0C138.102 0 157.966 18.144 160.728 41.5414C160.951 43.375 161.062 45.2484 161.062 47.1457Z" fill="url(#paint0_linear_1_43)"/>
<path d="M139.797 54.6552C139.797 54.7429 139.797 54.4957 139.797 54.6552V20.6232C139.797 19.8101 139.137 19.1405 138.317 19.1405H115.468C114.649 19.1405 113.988 19.8021 113.988 20.6232V30.2772C114.259 30.2772 114.505 30.2772 114.76 30.2931C114.824 30.2931 114.879 30.317 114.943 30.317C114.879 30.317 114.816 30.3011 114.752 30.3011C116.797 30.4047 118.715 30.9628 120.45 31.8397C125.17 34.2233 128.425 39.0941 128.425 44.7382C128.425 45.057 128.409 45.3679 128.393 45.6629C128.345 46.4043 128.218 47.1138 128.066 47.8153C127.509 50.3344 126.332 52.6223 124.66 54.4399C124.445 54.695 124.199 54.9262 123.96 55.1654C123.864 55.2531 123.785 55.3487 123.689 55.4364L122.997 56.13L113.972 65.1382L104.271 55.4444C103.945 55.1175 103.618 54.7907 103.292 54.432C101.151 52.1121 99.7903 49.0191 99.5833 45.6629C99.5515 45.3679 99.5515 45.0411 99.5515 44.7382C99.5515 40.1304 101.39 36.0568 104.541 33.442C104.661 33.2906 104.78 33.1152 104.78 32.9079C104.78 32.4934 104.454 32.1346 104.04 32.1346C103.984 32.1346 103.921 32.1346 103.865 32.1665C103.807 32.1931 103.748 32.2223 103.69 32.2542C94.4024 36.001 88.1949 45.2484 88.1949 56.13C88.1949 70.3996 99.7425 81.9668 113.988 81.9668C128.234 81.9668 139.805 70.3996 139.805 56.13C139.805 55.7154 139.813 55.0617 139.797 54.6472V54.6552Z" fill="white"/>
<path opacity="0.09" d="M159.621 58.7846C157.704 66.3738 153.939 73.2297 148.838 78.8419C147.819 79.9579 146.761 81.0261 145.639 82.0465L124.748 102.973L98.2225 76.5858C102.576 79.9739 108.043 81.9748 113.98 81.9748C128.226 81.9748 139.805 70.4076 139.805 56.1459C139.805 55.7314 139.813 55.0697 139.797 54.6632V20.6232L159.621 58.7766V58.7846Z" fill="url(#paint1_linear_1_43)"/>
</g>
<defs>
<linearGradient id="paint0_linear_1_43" x1="33.9187" y1="101.075" x2="132.141" y2="42.2461" gradientUnits="userSpaceOnUse">
<stop stop-color="#FEFFDF"/>
<stop offset="1" stop-color="#FFA952"/>
</linearGradient>
<linearGradient id="paint1_linear_1_43" x1="114.911" y1="94.2595" x2="146.34" y2="38.5497" gradientUnits="userSpaceOnUse">
<stop stop-opacity="0"/>
<stop offset="1" stop-opacity="0.7"/>
</linearGradient>
<clipPath id="clip0_1_43">
<rect width="228" height="161" fill="white"/>
</clipPath>
</defs>
</svg>
