<svg width="259" height="195" viewBox="0 0 259 195" fill="none" xmlns="http://www.w3.org/2000/svg">
<g clip-path="url(#clip0_1_13)">
<path d="M259 155.565L176.769 187.922L158.777 195L119.861 181.479L86.6489 169.941L83.8902 168.983L79.8477 158.777L63.7735 118.2L55.7053 97.83L53.2788 91.707L51.5241 87.2755L47.6132 77.4025L41.2805 61.4183L55.1124 55.9767L68.3227 50.7781L77.8181 47.0423L197.373 0L259 155.565Z" fill="#F2F2F2"/>
<path d="M5.96203 103.938C6.9606 103.722 8.00414 103.911 8.8631 104.462C9.72205 105.014 10.3261 105.883 10.5422 106.878C10.7584 107.873 10.5691 108.913 10.0159 109.769C9.46263 110.625 8.59084 111.227 7.59228 111.443C5.51288 111.891 0 109.152 0 109.152C0 109.152 3.88263 104.386 5.96203 103.938Z" fill="#FFA953"/>
<path d="M6.88248 182.762C7.53622 181.98 8.47509 181.488 9.49255 181.396C10.51 181.303 11.5227 181.617 12.3079 182.269C13.0931 182.92 13.5864 183.856 13.6793 184.87C13.7722 185.884 13.4572 186.893 12.8034 187.676C11.4421 189.305 5.4061 190.53 5.4061 190.53C5.4061 190.53 5.52114 184.392 6.88248 182.762Z" fill="#FFA953"/>
<path d="M173.954 57.7621C167.748 47.3115 155.47 46.8245 155.47 46.8245C155.47 46.8245 143.506 45.2997 135.831 61.216C128.678 76.0514 118.805 90.3752 134.242 93.8481L137.03 85.1987L138.757 94.492C140.955 94.6496 143.16 94.6871 145.362 94.6045C161.894 94.0726 177.638 94.7601 177.131 88.8479C176.457 80.9884 179.925 67.8176 173.954 57.7621Z" fill="#2F2E41"/>
<path d="M148.482 79.6343C150.62 84.3485 151.968 89.9678 152.774 96.2096L169.942 95.1402C165.995 89.5661 164.684 83.1682 166.186 75.8914L148.482 79.6343Z" fill="#FFB8B8"/>
<path opacity="0.2" d="M148.482 79.6343C150.62 84.3485 151.968 89.9678 152.774 96.2096L169.942 95.1402C165.995 89.5661 164.684 83.1682 166.186 75.8914L148.482 79.6343Z" fill="black"/>
<path d="M68.8267 169.391C68.8267 169.391 59.9411 174.135 64.4501 178.185C68.959 182.234 74.9151 172.824 74.9151 172.824L68.8267 169.391Z" fill="#FFB8B8"/>
<path d="M177.453 155.56L177.314 162.041L177.018 176.043L176.769 187.922L158.777 195L119.861 181.479L122.422 167.311L124.489 155.87L125.412 150.748L172.088 144.332L177.453 155.56Z" fill="#2F2E41"/>
<path d="M177.453 155.56L177.313 162.04C160.8 161.618 135.203 157.645 124.489 155.87L125.412 150.748L172.088 144.332L177.453 155.56Z" fill="#3F3D56"/>
<path d="M156.797 84.1791C164.205 84.1791 170.21 78.1944 170.21 70.8119C170.21 63.4294 164.205 57.4447 156.797 57.4447C149.39 57.4447 143.385 63.4294 143.385 70.8119C143.385 78.1944 149.39 84.1791 156.797 84.1791Z" fill="#FFB8B8"/>
<path d="M182.55 162.778C182.55 162.778 184.159 177.215 174.502 176.146L172.893 161.709L164.308 153.154L140.166 152.619L122.461 169.195C122.461 169.195 121.925 152.085 124.071 150.48C126.217 148.876 131.045 145.134 131.045 145.134V142.46L116.56 113.052C116.56 113.052 125.144 95.4076 132.118 94.8729L141.239 94.3382C141.239 94.3382 144.458 92.7341 144.458 92.1994C144.458 91.6647 143.921 87.3872 146.604 88.4566C146.604 88.4566 146.845 82.9707 149.673 84.6443C149.673 84.6443 158.573 91.5952 167.608 84.9491C167.608 84.9491 171.82 84.1791 171.283 86.3179C170.747 88.4566 171.283 90.0607 172.356 90.0607C173.429 90.0607 178.258 91.6647 178.258 92.7341C178.258 92.964 178.606 95.1777 179.153 98.5087V98.5141C181.144 110.657 185.769 137.648 185.769 137.648C185.769 137.648 190.597 144.599 182.55 162.778Z" fill="#FFA953"/>
<path d="M120.315 110.379L116.56 113.052L82.2236 156.897L63.9825 171.333C63.9825 171.333 74.176 169.729 72.03 178.284L134.801 142.46L120.315 110.379Z" fill="#FFA953"/>
<path d="M179.153 98.5088V98.5141C178.44 102.695 155.188 101.824 151.969 101.824C148.75 101.824 146.067 101.289 142.848 99.1504C139.629 97.0116 141.239 94.3382 141.239 94.3382C141.239 94.3382 143.98 92.2576 143.98 91.723C143.98 91.1883 143.443 86.9108 146.126 87.9801C146.126 87.9801 146.367 82.4942 149.195 84.1678C149.195 84.1678 158.573 91.5952 167.608 84.9491C167.608 84.9491 171.82 84.1791 171.283 86.3179C170.747 88.4566 171.283 90.0607 172.356 90.0607C173.429 90.0607 178.258 91.6648 178.258 92.7341C178.258 92.964 178.606 95.1777 179.153 98.5088Z" fill="#3F3D56"/>
<path d="M176.38 78.5649C176.38 78.5649 172.088 69.4752 167.796 73.7527C163.504 78.0302 172.624 84.4465 172.624 84.4465L176.38 78.5649Z" fill="#FFB8B8"/>
<path d="M176.38 76.4261C176.38 76.4261 169.752 84.7734 167.701 85.412C167.701 85.412 173.697 109.042 181.208 115.458L185.5 137.381C185.5 137.381 203.741 129.895 199.449 117.597C199.406 117.474 199.364 117.352 199.321 117.23C195.738 106.989 190.792 97.2727 184.616 88.3417L176.38 76.4261Z" fill="#FFA953"/>
<path opacity="0.2" d="M172.838 101.184L186.037 137.381L181.208 115.458L172.838 101.184Z" fill="black"/>
<path d="M171.21 56.7546L159.08 50.4224L142.33 53.0129L138.864 68.268L147.491 67.9373L149.901 62.3327V67.8449L153.882 67.6921L156.192 58.7695L157.636 68.268L171.788 67.9802L171.21 56.7546Z" fill="#2F2E41"/>
<path d="M67.1502 175.937C58.8119 171.304 53.6211 164.979 51.7217 157.138C50.3114 151.317 50.7166 144.765 52.9261 137.667C54.564 132.433 57.0197 127.489 60.2027 123.018C77.0894 99.1964 78.6135 83.6742 76.9185 74.8473C75.0601 65.1689 69.0221 61.1493 68.9613 61.1099L69.2219 60.7104C69.2843 60.7508 75.4813 64.8637 77.3845 74.7385C78.4816 80.4314 77.9654 86.9227 75.8503 94.0322C73.2179 102.88 68.0847 112.725 60.5933 123.293C57.4393 127.724 55.0058 132.622 53.3827 137.808C49.759 149.45 49.2464 165.444 67.383 175.521L67.1502 175.937Z" fill="#2F2E41"/>
<path d="M51.9213 131.827C45.3476 128.175 45.5307 122.387 46.8418 118.175C47.4231 116.317 48.2947 114.562 49.4246 112.975C55.3404 104.63 55.8751 99.2083 55.2818 96.1299C54.6375 92.7871 52.5706 91.4147 52.5498 91.4012L52.8104 91.0017C52.9022 91.0612 55.0691 92.5 55.7513 96.0401C56.6397 100.65 54.6425 106.44 49.8152 113.25C48.7142 114.796 47.8648 116.506 47.2984 118.316C46.0397 122.36 45.8604 127.914 52.154 131.411L51.9213 131.827Z" fill="#2F2E41"/>
<path d="M81.4967 78.9357L81.264 78.5195C87.5576 75.0228 87.3783 69.4684 86.1196 65.4247C85.5532 63.6147 84.7038 61.905 83.6029 60.3588C78.7755 53.5488 76.7783 47.7584 77.6667 43.1487C78.3489 39.6086 80.5158 38.1698 80.6076 38.1104L80.8685 38.5096C80.8476 38.5233 78.7702 39.9137 78.1325 43.2574C77.5459 46.334 78.0863 51.7507 83.9934 60.0837C85.1233 61.6709 85.9949 63.4257 86.5763 65.2835C87.8873 69.4956 88.0704 75.2834 81.4967 78.9357Z" fill="#2F2E41"/>
<path d="M95.5319 55.2292C95.0175 56.0157 94.3526 56.6934 93.5753 57.2238C92.798 57.7541 91.9234 58.1267 91.0016 58.3201C90.0798 58.5135 89.1287 58.5241 88.2028 58.3511C87.2769 58.1782 86.3943 57.8251 85.6053 57.3121C84.8163 56.7991 84.1365 56.1363 83.6046 55.3614C83.0728 54.5865 82.6993 53.7148 82.5056 52.796C82.3118 51.8772 82.3016 50.9294 82.4755 50.0067C82.6493 49.084 83.0039 48.2044 83.5189 47.4183C85.6832 44.1123 96.579 40.5486 96.579 40.5486C96.579 40.5486 97.6961 51.9231 95.5319 55.2292Z" fill="#FFA953"/>
<path d="M92.9023 33.072C92.3878 33.8585 91.723 34.5362 90.9456 35.0666C90.1683 35.5969 89.2938 35.9695 88.3719 36.1629C87.4501 36.3563 86.4991 36.3669 85.5732 36.1939C84.6473 36.021 83.7646 35.6679 82.9757 35.1549C82.1867 34.642 81.5069 33.9791 80.975 33.2042C80.4431 32.4293 80.0697 31.5576 79.8759 30.6388C79.6822 29.72 79.6719 28.7722 79.8458 27.8495C80.0197 26.9268 80.3743 26.0472 80.8893 25.2611C83.0535 21.9551 93.9494 18.3914 93.9494 18.3914C93.9494 18.3914 95.0665 29.7659 92.9023 33.072Z" fill="#FFA953"/>
<path d="M81.343 114.248C79.6605 114.25 78.0271 113.682 76.7115 112.637C75.3959 111.592 74.4763 110.131 74.1041 108.496C73.7319 106.861 73.9291 105.148 74.6634 103.639C75.3976 102.13 76.6252 100.915 78.1442 100.194C81.754 98.48 92.5811 100.99 93.0404 101.097L93.3307 101.165L93.2009 101.433C92.9954 101.856 88.1286 111.816 84.5184 113.53C83.5269 114.002 82.4419 114.247 81.343 114.248ZM81.946 100.074C80.4776 100.074 79.1908 100.225 78.3499 100.625C76.6899 101.413 75.412 102.826 74.7974 104.553C74.1827 106.28 74.2817 108.179 75.0724 109.834C75.8631 111.488 77.2809 112.762 79.0138 113.374C80.7467 113.987 82.6528 113.888 84.3128 113.1C87.4533 111.609 91.8213 103.123 92.6369 101.495C91.3318 101.206 85.9613 100.074 81.946 100.074Z" fill="#2F2E41"/>
<path d="M66.7282 48.6713C67.4242 49.3037 67.9883 50.0666 68.3884 50.9163C68.7886 51.766 69.0168 52.6859 69.0602 53.6235C69.1036 54.5611 68.9613 55.4981 68.6414 56.3809C68.3214 57.2637 67.8301 58.0751 67.1956 58.7686C66.561 59.4622 65.7956 60.0244 64.943 60.4232C64.0904 60.822 63.1674 61.0495 62.2266 61.0927C61.2858 61.136 60.3456 60.9941 59.4598 60.6753C58.574 60.3564 57.7599 59.8668 57.064 59.2344C54.1372 56.5747 52.3571 45.2844 52.3571 45.2844C52.3571 45.2844 63.8014 46.0116 66.7282 48.6713Z" fill="#FFA953"/>
<path d="M49.9942 78.6907C51.3997 79.968 52.2385 81.7493 52.3262 83.6429C52.4138 85.5366 51.7431 87.3873 50.4615 88.7881C49.1799 90.1888 47.3925 91.0248 45.4925 91.1122C43.5925 91.1995 41.7354 90.531 40.3299 89.2538C37.4031 86.5941 35.623 75.3038 35.623 75.3038C35.623 75.3038 47.0674 76.031 49.9942 78.6907Z" fill="#FFA953"/>
<path d="M68.7513 82.9009C66.3575 82.9009 61.7803 80.6418 61.5703 80.5375L61.3033 80.4049L61.4914 80.174C61.6521 79.9769 65.4515 75.3379 67.5884 74.8767C68.649 74.6479 69.7573 74.8483 70.6695 75.4339C71.5818 76.0195 72.2233 76.9423 72.4529 77.9993C72.6824 79.0562 72.4813 80.1608 71.8938 81.07C71.3062 81.9791 70.3803 82.6184 69.3197 82.8473C69.1327 82.885 68.9421 82.903 68.7513 82.9009ZM62.056 80.2425C63.1834 80.7788 67.501 82.7524 69.2186 82.3815C70.1547 82.1788 70.9717 81.6141 71.4901 80.8113C72.0085 80.0086 72.1859 79.0335 71.9832 78.1005C71.7805 77.1675 71.2144 76.3528 70.4092 75.8357C69.6041 75.3185 68.6258 75.1411 67.6895 75.3425C65.9713 75.7133 62.8598 79.2896 62.056 80.2425Z" fill="#2F2E41"/>
<path d="M43.0781 179.836C43.5817 178.951 44.4174 178.301 45.4016 178.03C46.3858 177.758 47.4379 177.887 48.3266 178.388C49.2154 178.89 49.8681 179.722 50.1413 180.703C50.4144 181.683 50.2858 182.732 49.7835 183.618C48.7357 185.463 43.0157 187.742 43.0157 187.742C43.0157 187.742 42.0303 181.682 43.0781 179.836Z" fill="#FFA953"/>
<path d="M30.5655 138.956C28.9155 138.93 27.2693 138.788 25.6391 138.533L25.3446 138.485L25.4555 138.209C25.5502 137.973 27.7966 132.419 29.7 131.347C30.1677 131.083 30.6829 130.914 31.2162 130.849C31.7495 130.784 32.2904 130.824 32.8081 130.967C33.3258 131.111 33.8101 131.354 34.2334 131.684C34.6567 132.014 35.0106 132.423 35.2751 132.889C35.5395 133.356 35.7092 133.869 35.7745 134.401C35.8399 134.932 35.7995 135.471 35.6558 135.987C35.512 136.503 35.2677 136.986 34.9368 137.408C34.6059 137.829 34.1949 138.182 33.7272 138.446C33.0434 138.831 31.8392 138.956 30.5655 138.956ZM26.015 138.107C27.2511 138.286 31.9617 138.893 33.4919 138.031C34.3261 137.561 34.9388 136.78 35.1952 135.86C35.4516 134.939 35.3307 133.955 34.859 133.124C34.3874 132.293 33.6037 131.682 32.6803 131.426C31.7569 131.171 30.7695 131.291 29.9353 131.761C28.4053 132.623 26.4988 136.959 26.015 138.107Z" fill="#2F2E41"/>
</g>
<defs>
<clipPath id="clip0_1_13">
<rect width="259" height="195" fill="white"/>
</clipPath>
</defs>
</svg>
