<svg width="363" height="181" viewBox="0 0 363 181" fill="none" xmlns="http://www.w3.org/2000/svg">
<g clip-path="url(#clip0_1_79)">
<path d="M99.1109 148.037C108.966 148.037 116.954 140.044 116.954 130.184C116.954 120.324 108.966 112.33 99.1109 112.33C89.2563 112.33 81.2675 120.324 81.2675 130.184C81.2675 140.044 89.2563 148.037 99.1109 148.037Z" fill="#E4E4E4"/>
<path opacity="0.2" d="M85.936 118.259C84.2716 122.155 84.0458 126.515 85.2989 130.562C86.5521 134.609 89.2026 138.077 92.7767 140.349C96.3508 142.62 100.616 143.546 104.809 142.961C109.003 142.376 112.852 140.318 115.668 137.154C114.652 139.534 113.13 141.665 111.209 143.398C109.287 145.131 107.012 146.425 104.541 147.191C102.071 147.957 99.4627 148.177 96.8986 147.834C94.3345 147.492 91.8755 146.596 89.6919 145.208C87.5083 143.821 85.6524 141.974 84.2526 139.798C82.8529 137.621 81.9429 135.166 81.5856 132.603C81.2284 130.039 81.4324 127.429 82.1836 124.952C82.9347 122.475 84.2151 120.192 85.936 118.259Z" fill="black"/>
<path d="M99.1601 130.184H99.2088L100.091 180.8H98.2284L99.1601 130.184Z" fill="#3F3D56"/>
<path d="M63.0085 114.743C82.8772 114.743 98.984 98.6275 98.984 78.7479C98.984 58.8683 82.8772 42.7527 63.0085 42.7527C43.1398 42.7527 27.033 58.8683 27.033 78.7479C27.033 98.6275 43.1398 114.743 63.0085 114.743Z" fill="#E4E4E4"/>
<path opacity="0.2" d="M36.4454 54.706C33.0897 62.5599 32.6344 71.3517 35.1611 79.5105C37.6877 87.6693 43.0315 94.6634 50.2375 99.243C57.4436 103.822 66.0424 105.689 74.4974 104.509C82.9523 103.329 90.7125 99.1799 96.3912 92.8022C94.3413 97.6007 91.2732 101.896 87.3995 105.39C83.5259 108.884 78.9393 111.494 73.9574 113.039C68.9756 114.583 63.7177 115.026 58.548 114.335C53.3784 113.645 48.4205 111.838 44.018 109.04C39.6155 106.242 35.8735 102.52 33.0514 98.1319C30.2294 93.7435 28.3946 88.7936 27.6743 83.6252C26.9539 78.4569 27.3653 73.1936 28.8798 68.2001C30.3943 63.2066 32.9758 58.6022 36.4454 54.706Z" fill="black"/>
<path d="M63.1073 78.7478H63.2063L64.9854 180.8H61.2296L63.1073 78.7478Z" fill="#3F3D56"/>
<path d="M300.196 127.979H135.3V176.887H300.196V127.979Z" fill="#F0F0F0"/>
<path d="M227.361 138.086H208.134V176.887H227.361V138.086Z" fill="#CACACA"/>
<path d="M290.583 70.2659H144.913V115.262H290.583V70.2659Z" fill="#F0F0F0"/>
<path d="M305.351 73.0374H130.145C129.853 73.0374 129.567 72.9499 129.324 72.7861C129.082 72.6223 128.894 72.3897 128.785 72.1182C128.676 71.8468 128.65 71.5488 128.711 71.2626C128.773 70.9765 128.918 70.7152 129.129 70.5124L177.013 24.4609V4.40181C177.013 4.0128 177.168 3.63985 177.443 3.36478C177.718 3.08971 178.09 2.93498 178.479 2.93454H187.93C188.319 2.93497 188.691 3.08969 188.966 3.36477C189.241 3.63984 189.396 4.0128 189.396 4.40181V12.5514L193.013 9.07301C198.931 3.38094 206.784 0.141066 214.992 0.00449912C223.2 -0.132068 231.156 2.84479 237.26 8.33682L306.331 70.4789C306.552 70.6774 306.707 70.9382 306.777 71.2268C306.846 71.5154 306.826 71.8182 306.72 72.0954C306.614 72.3726 306.426 72.611 306.182 72.7791C305.937 72.9473 305.647 73.0374 305.351 73.0374Z" fill="#CACACA"/>
<path d="M183.367 81.678C184.587 81.678 185.795 81.9184 186.922 82.3854C188.049 82.8524 189.072 83.5369 189.935 84.3998C190.797 85.2627 191.481 86.2871 191.948 87.4145C192.415 88.542 192.655 89.7504 192.655 90.9707V103.524H174.08V90.9707C174.08 89.7504 174.32 88.542 174.787 87.4145C175.254 86.2871 175.938 85.2627 176.8 84.3998C177.663 83.5369 178.686 82.8524 179.813 82.3854C180.94 81.9184 182.148 81.678 183.367 81.678Z" fill="white"/>
<path d="M217.748 81.841C220.211 81.841 222.574 82.8201 224.315 84.5628C226.057 86.3055 227.036 88.6692 227.036 91.1337V103.687H208.46V91.1337C208.46 88.6692 209.439 86.3055 211.181 84.5628C212.922 82.8201 215.285 81.841 217.748 81.841Z" fill="white"/>
<path d="M252.129 82.0041C254.592 82.0041 256.954 82.9831 258.696 84.7258C260.438 86.4686 261.416 88.8322 261.416 91.2968V103.85H242.841V91.2968C242.841 88.8322 243.819 86.4686 245.561 84.7258C247.303 82.9831 249.665 82.0041 252.129 82.0041Z" fill="white"/>
<path d="M265.816 137.597C268.279 137.597 270.641 138.576 272.383 140.319C274.125 142.062 275.103 144.425 275.103 146.89V159.443H256.528V146.89C256.528 144.425 257.506 142.062 259.248 140.319C260.99 138.576 263.352 137.597 265.816 137.597Z" fill="white"/>
<path d="M173.917 137.597C176.38 137.597 178.743 138.576 180.484 140.319C182.226 142.062 183.205 144.425 183.205 146.89V159.443H164.629V146.89C164.629 145.67 164.87 144.461 165.336 143.334C165.803 142.206 166.487 141.182 167.35 140.319C168.212 139.456 169.236 138.772 170.363 138.305C171.49 137.838 172.697 137.597 173.917 137.597Z" fill="white"/>
<path d="M324.287 128.742L293.354 115.048C293.188 114.974 293.008 114.936 292.827 114.936H145.407C145.238 114.936 145.072 114.969 144.916 115.032L111.246 128.727C110.966 128.841 110.734 129.048 110.59 129.314C110.446 129.58 110.399 129.888 110.457 130.185C110.515 130.482 110.675 130.749 110.908 130.942C111.141 131.134 111.434 131.239 111.737 131.239H120.472V176.235H119.495V180.8H316.001V176.235H314.372V131.239H323.759C324.058 131.239 324.348 131.136 324.58 130.948C324.812 130.76 324.973 130.497 325.035 130.205C325.096 129.912 325.056 129.607 324.92 129.341C324.783 129.075 324.56 128.863 324.287 128.742ZM311.765 176.235H123.079V131.239H311.765V176.235Z" fill="#CACACA"/>
<path d="M194.936 101.731H171.147V105.643H194.936V101.731Z" fill="#CACACA"/>
<path d="M229.806 101.731H206.016V105.643H229.806V101.731Z" fill="#CACACA"/>
<path d="M264.675 101.731H240.886V105.643H264.675V101.731Z" fill="#CACACA"/>
<path d="M277.71 158.139H253.921V162.052H277.71V158.139Z" fill="#CACACA"/>
<path d="M185.486 158.139H161.696V162.052H185.486V158.139Z" fill="#CACACA"/>
<path d="M362.601 181H0.39934C0.293428 181 0.191854 180.958 0.116964 180.883C0.0420729 180.808 0 180.706 0 180.6C0 180.494 0.0420729 180.393 0.116964 180.318C0.191854 180.243 0.293428 180.201 0.39934 180.201H362.601C362.707 180.201 362.808 180.243 362.883 180.318C362.958 180.393 363 180.494 363 180.6C363 180.706 362.958 180.808 362.883 180.883C362.808 180.958 362.707 181 362.601 181Z" fill="#3F3D56"/>
<path d="M271.498 69.5951C271.498 69.8508 271.494 70.1105 271.49 70.3662C271.486 70.6739 271.478 70.9776 271.466 71.2852C271.454 71.5529 271.442 71.8166 271.426 72.0803C271.378 72.9634 271.302 73.8424 271.198 74.7254C271.174 74.9492 271.146 75.1689 271.114 75.3927C271.09 75.5645 271.067 75.7403 271.039 75.9161C271.011 76.1119 270.983 76.3077 270.951 76.5035C270.887 76.919 270.815 77.3346 270.735 77.7501C270.695 77.9579 270.655 78.1656 270.611 78.3734C270.527 78.7849 270.436 79.2005 270.34 79.612C270.332 79.644 270.324 79.6799 270.316 79.7119C270.268 79.9157 270.22 80.1155 270.168 80.3193C270.152 80.3792 270.14 80.4351 270.12 80.4951C270.084 80.6469 270.044 80.7987 270.004 80.9505C269.948 81.1623 269.893 81.37 269.833 81.5818C269.737 81.9095 269.641 82.2332 269.541 82.5608C269.529 82.5948 269.518 82.6295 269.509 82.6647C269.317 83.284 269.114 83.8953 268.89 84.5026C268.774 84.8223 268.651 85.1459 268.527 85.4655C268.403 85.7852 268.275 86.1049 268.143 86.4205C268.016 86.7282 267.884 87.0358 267.752 87.3395C267.72 87.4114 267.688 87.4833 267.652 87.5552C267.512 87.8709 267.369 88.1785 267.221 88.4862C267.217 88.4902 267.217 88.4982 267.213 88.5022C267.097 88.7499 266.973 88.9976 266.849 89.2414C266.849 89.2488 266.847 89.2559 266.841 89.2613C266.722 89.5011 266.598 89.7408 266.47 89.9765L266.266 90.3641L266.242 90.4081C265.987 90.8836 265.723 91.3551 265.444 91.8225C265.384 91.9264 265.324 92.0303 265.264 92.1302C265.204 92.234 265.14 92.3379 265.076 92.4378C265.037 92.5098 264.993 92.5817 264.945 92.6536C264.861 92.7894 264.777 92.9293 264.689 93.0651C264.673 93.0931 264.653 93.1211 264.637 93.149C264.485 93.3848 264.334 93.6165 264.182 93.8523C263.994 94.1359 263.803 94.4156 263.607 94.6953L259.27 101.64L259.082 101.484L259.03 101.436H259.026L258.855 101.292L258.383 100.892C258.24 101.032 258.1 101.172 257.956 101.308C257.9 101.364 257.84 101.416 257.784 101.472C257.741 101.512 257.701 101.552 257.657 101.592C250.159 108.918 240.186 113.16 229.711 113.479H229.699C221.769 113.696 213.92 111.843 206.925 108.1C206.769 108.021 206.617 107.941 206.465 107.849C205.555 107.353 204.664 106.83 203.79 106.27C203.786 106.266 203.782 106.266 203.778 106.262C202.763 105.543 201.773 104.776 200.807 103.961C195.622 99.5885 191.52 94.0738 188.823 87.8493C186.126 81.6248 184.906 74.8598 185.26 68.0846C185.272 67.8169 185.288 67.5532 185.308 67.2855C185.372 66.3186 185.471 65.3557 185.604 64.3967C185.64 64.129 185.68 63.8613 185.72 63.5976H271.09C271.258 64.8202 271.374 66.0496 271.438 67.2855C271.478 68.0568 271.498 68.8239 271.498 69.5951Z" fill="#F0F0F0"/>
<path d="M271.09 63.5977C269.553 53.3712 264.4 44.0359 256.567 37.289C248.734 30.542 238.741 26.8312 228.405 26.8312C218.069 26.8312 208.076 30.542 200.243 37.289C192.41 44.0359 187.257 53.3712 185.72 63.5977C185.68 63.8614 185.64 64.1291 185.604 64.3968C185.472 65.3558 185.374 66.3187 185.308 67.2856H271.438C271.374 66.051 271.258 64.8217 271.09 63.5977Z" fill="#FFA952"/>
<path d="M231.201 108.099H206.467V88.3025C206.924 79.2553 214.652 78.5248 221.914 79.0103C223.133 79.0102 224.341 79.2505 225.468 79.7175C226.595 80.1844 227.619 80.8689 228.481 81.7317C229.344 82.5946 230.028 83.619 230.494 84.7464C230.961 85.8738 231.201 87.0822 231.201 88.3025V108.099Z" fill="#FFA952"/>
<path d="M206.465 94.0241V94.0281C206.465 94.0321 206.469 94.0321 206.473 94.0321L206.465 94.0241ZM196.518 63.5977C196.502 63.6976 196.482 63.7975 196.466 63.8974C196.482 63.7975 196.502 63.6976 196.522 63.5977H196.518ZM196.023 67.2856C196.011 67.4375 195.999 67.5893 195.991 67.7411C195.999 67.5893 196.011 67.4375 196.027 67.2856C196.026 67.2576 196.027 67.2296 196.031 67.2017C196.027 67.2297 196.027 67.2577 196.023 67.2856ZM206.465 94.0281C206.465 94.0321 206.469 94.0321 206.473 94.0321L206.465 94.0241V94.0281ZM196.518 63.5977C196.502 63.6976 196.482 63.7975 196.466 63.8974C196.482 63.7975 196.502 63.6976 196.522 63.5977H196.518ZM195.991 67.7411C195.999 67.5893 196.011 67.4375 196.027 67.2856C196.026 67.2576 196.027 67.2296 196.031 67.2017C196.027 67.2297 196.027 67.2577 196.023 67.2856C196.011 67.4375 195.999 67.5893 195.991 67.7411ZM319.363 141.244C319.285 141.162 319.202 141.084 319.115 141.012L319.111 141.008L299.336 124.311L298.825 123.879L296.88 122.237L296.393 121.825L293.621 119.484L292.862 118.845L291.293 117.518L290.49 116.839L282.919 110.45L278.578 106.786L277.995 106.295L265.204 95.4945C265.4 95.2148 265.592 94.9351 265.779 94.6514C265.931 94.4157 266.083 94.1839 266.235 93.9482C266.25 93.9202 266.27 93.8922 266.286 93.8642C266.374 93.7284 266.458 93.5886 266.542 93.4527C266.59 93.3808 266.634 93.3089 266.674 93.237C266.738 93.1371 266.802 93.0332 266.862 92.9293C266.921 92.8294 266.981 92.7256 267.041 92.6217C267.321 92.1542 267.584 91.6827 267.84 91.2072L267.864 91.1633L268.067 90.7757C268.195 90.5399 268.319 90.3002 268.439 90.0605C268.444 90.055 268.447 90.0479 268.447 90.0405C268.571 89.7968 268.694 89.5491 268.81 89.3013C268.814 89.2973 268.814 89.2894 268.818 89.2854C268.966 88.9777 269.11 88.67 269.25 88.3544C269.285 88.2825 269.317 88.2105 269.349 88.1386C269.481 87.835 269.613 87.5273 269.741 87.2197C269.872 86.904 270 86.5843 270.124 86.2647C270.248 85.9451 270.372 85.6214 270.487 85.3018C270.707 84.6904 270.913 84.0778 271.106 83.4638C271.115 83.4286 271.126 83.394 271.138 83.3599C271.238 83.0323 271.334 82.7086 271.43 82.381C271.49 82.1692 271.546 81.9615 271.602 81.7497C271.642 81.5978 271.682 81.446 271.717 81.2942C271.737 81.2343 271.749 81.1783 271.765 81.1184C271.817 80.9146 271.865 80.7149 271.913 80.5111C271.921 80.4791 271.929 80.4432 271.937 80.4112C272.033 79.9996 272.125 79.5841 272.209 79.1725C272.253 78.9648 272.292 78.757 272.332 78.5492C272.408 78.1337 272.484 77.7182 272.548 77.3026C272.58 77.1068 272.608 76.9111 272.636 76.7153C272.664 76.5395 272.688 76.3637 272.712 76.1918C272.744 75.9681 272.772 75.7483 272.796 75.5246C272.899 74.6416 272.975 73.7625 273.023 72.8795C273.039 72.6158 273.051 72.3521 273.063 72.0843C273.075 71.7767 273.083 71.473 273.087 71.1654C273.091 70.9097 273.095 70.65 273.095 70.3942C273.095 69.6231 273.075 68.8559 273.035 68.0848C272.971 66.8501 272.856 65.6208 272.688 64.3969C271.257 53.9343 266.111 44.3363 258.19 37.3573C250.269 30.3783 240.103 26.4844 229.549 26.3874C218.995 26.2905 208.759 29.9969 200.711 36.8291C192.664 43.6614 187.342 53.1632 185.72 63.5977C185.68 63.8614 185.64 64.1291 185.604 64.3969C185.472 65.3558 185.374 66.3187 185.308 67.2856C185.288 67.5534 185.272 67.8171 185.26 68.0848C184.906 74.8599 186.126 81.6249 188.823 87.8494C191.52 94.0739 195.622 99.5886 200.807 103.961C201.773 104.776 202.763 105.543 203.778 106.263C203.782 106.267 203.786 106.267 203.79 106.271C204.129 106.51 204.469 106.746 204.812 106.978C205.359 107.337 205.91 107.689 206.465 108.025C206.509 108.049 206.553 108.077 206.597 108.101C207.076 108.388 207.56 108.664 208.043 108.932H208.047C209.845 109.921 211.712 110.781 213.633 111.505C219.27 113.627 225.281 114.57 231.296 114.278H231.308C238.329 113.938 245.165 111.914 251.239 108.376C252.122 107.865 252.992 107.317 253.843 106.734C254.055 106.59 254.27 106.442 254.478 106.295C254.734 106.115 254.989 105.927 255.245 105.739C255.249 105.739 255.249 105.735 255.253 105.735C255.272 105.719 255.292 105.705 255.313 105.691C255.484 105.559 255.66 105.428 255.828 105.3C255.872 105.268 255.916 105.236 255.959 105.2C255.971 105.192 255.982 105.182 255.991 105.172C256.091 105.1 256.187 105.02 256.287 104.944C256.387 104.868 256.483 104.788 256.582 104.708C256.599 104.698 256.615 104.686 256.63 104.672C256.742 104.58 256.854 104.493 256.966 104.401C257.082 104.309 257.193 104.213 257.301 104.121C257.413 104.029 257.521 103.937 257.633 103.841C257.729 103.761 257.828 103.677 257.924 103.59C257.956 103.566 257.984 103.538 258.016 103.51C258.028 103.498 258.042 103.487 258.056 103.478C258.188 103.366 258.316 103.25 258.443 103.134C258.475 103.106 258.503 103.078 258.535 103.05C258.731 102.874 258.927 102.698 259.118 102.515C259.162 102.475 259.21 102.431 259.254 102.391C259.298 102.351 259.338 102.311 259.382 102.271C259.438 102.215 259.498 102.163 259.553 102.107C259.697 101.971 259.837 101.831 259.981 101.692L260.452 102.091L260.624 102.235H260.628L260.68 102.283L260.867 102.439L263.655 104.796L263.715 104.848L263.763 104.884L264.078 105.152L264.709 105.687L265.34 106.219L265.432 106.295L268.367 108.772L268.774 109.115L271.606 111.505L286.261 123.879L286.773 124.311L306.831 141.244L311.975 145.587L313.888 147.201C314.294 147.545 314.763 147.805 315.27 147.967C315.777 148.129 316.31 148.19 316.84 148.145C317.37 148.101 317.886 147.952 318.359 147.708C318.831 147.464 319.251 147.129 319.594 146.722C319.882 146.384 320.11 146.001 320.269 145.587C320.559 144.854 320.628 144.052 320.467 143.28C320.306 142.508 319.922 141.8 319.363 141.244ZM203.686 48.6223C207.692 43.8721 212.96 40.3529 218.88 38.4711C224.801 36.5893 231.133 36.4218 237.144 37.9879C243.156 39.554 248.602 42.7898 252.854 47.3215C257.105 51.8532 259.989 57.4959 261.171 63.5977C261.223 63.8654 261.271 64.1291 261.315 64.3968C261.478 65.3518 261.598 66.3187 261.67 67.2856C261.69 67.5534 261.71 67.8171 261.722 68.0848C261.758 68.6841 261.774 69.2874 261.774 69.8868C261.776 73.5223 261.174 77.1329 259.993 80.571V80.575C258.672 84.4298 256.645 88.0044 254.015 91.1154C253.959 91.1793 253.903 91.2472 253.843 91.3111C253.316 91.9344 252.761 92.5338 252.19 93.1052C252.186 93.1092 252.182 93.1171 252.178 93.1211C251.982 93.3169 251.782 93.5167 251.583 93.7005C251.175 94.0961 250.76 94.4716 250.337 94.8312C249.702 95.3866 249.051 95.9074 248.384 96.3935C248.16 96.5573 247.937 96.7172 247.709 96.877C247.486 97.0368 247.258 97.1886 247.03 97.3405C246.575 97.6441 246.112 97.9358 245.645 98.2115C245.413 98.3513 245.173 98.4872 244.938 98.6191C244.702 98.7549 244.462 98.8827 244.223 99.0066C243.983 99.1345 243.744 99.2583 243.5 99.3782C243.017 99.6219 242.53 99.8496 242.034 100.061C241.787 100.173 241.539 100.277 241.292 100.373C241.136 100.437 240.984 100.501 240.828 100.557C240.768 100.585 240.705 100.609 240.641 100.629C240.557 100.665 240.473 100.697 240.389 100.725C240.362 100.737 240.334 100.748 240.305 100.757C240.134 100.825 239.966 100.885 239.79 100.945C239.539 101.036 239.287 101.12 239.031 101.2C238.776 101.284 238.524 101.364 238.269 101.436C238.013 101.516 237.754 101.588 237.498 101.656C237.238 101.728 236.983 101.796 236.723 101.855C236.448 101.927 236.172 101.991 235.893 102.051C235.649 102.107 235.409 102.155 235.166 102.199C234.938 102.247 234.707 102.287 234.479 102.327C234.16 102.383 233.84 102.435 233.517 102.479C233.341 102.507 233.169 102.531 232.993 102.547C232.918 102.559 232.846 102.567 232.774 102.575C232.55 102.607 232.326 102.631 232.107 102.651C232.047 102.655 231.991 102.663 231.935 102.667C231.692 102.691 231.444 102.711 231.2 102.731C230.677 102.766 230.158 102.79 229.635 102.802C229.371 102.806 229.104 102.81 228.84 102.81C228.577 102.81 228.313 102.806 228.05 102.798C228.05 102.798 228.05 102.802 228.046 102.798C228.042 102.802 228.042 102.802 228.038 102.798C228.037 102.799 228.036 102.799 228.036 102.8C228.035 102.8 228.034 102.8 228.034 102.8C228.033 102.8 228.032 102.8 228.031 102.8C228.031 102.799 228.03 102.799 228.03 102.798C228.017 102.802 228.003 102.802 227.99 102.798C227.802 102.798 227.614 102.79 227.431 102.778C227.295 102.774 227.155 102.77 227.015 102.758C226.828 102.75 226.64 102.739 226.452 102.723C226.392 102.723 226.332 102.715 226.273 102.711C226.244 102.71 226.216 102.707 226.189 102.703C225.997 102.687 225.801 102.671 225.61 102.651C225.514 102.643 225.414 102.635 225.318 102.623C225.027 102.591 224.735 102.555 224.448 102.515C224.12 102.475 223.793 102.427 223.469 102.367C223.317 102.347 223.17 102.319 223.022 102.291C222.826 102.259 222.631 102.223 222.435 102.183C222.231 102.143 222.028 102.103 221.824 102.055C221.66 102.019 221.492 101.983 221.329 101.943C221.249 101.927 221.169 101.907 221.093 101.887C220.674 101.788 220.258 101.68 219.847 101.56C219.588 101.488 219.328 101.412 219.072 101.332C218.721 101.224 218.374 101.108 218.026 100.984C217.89 100.941 217.759 100.893 217.623 100.841C217.487 100.797 217.355 100.745 217.22 100.693C217.096 100.649 216.972 100.601 216.852 100.553C216.652 100.477 216.457 100.397 216.261 100.317C215.858 100.153 215.462 99.9816 215.067 99.7978C214.843 99.6899 214.62 99.586 214.4 99.4782C213.534 99.0586 212.68 98.5925 211.84 98.0797C211.633 97.9558 211.425 97.824 211.217 97.6921C210.958 97.5323 210.706 97.3645 210.455 97.1967C210.315 97.1008 210.179 97.0089 210.043 96.913C209.792 96.7372 209.544 96.5573 209.301 96.3776C209.173 96.2857 209.045 96.1898 208.921 96.0939C208.478 95.7582 208.043 95.4066 207.615 95.047C207.412 94.8752 207.208 94.6994 207.008 94.5196C206.924 94.4477 206.841 94.3718 206.757 94.2959C206.661 94.208 206.565 94.124 206.473 94.0321L206.465 94.0241C206.326 93.9002 206.186 93.7684 206.05 93.6366C205.838 93.4368 205.631 93.233 205.431 93.0253C205.223 92.8215 205.024 92.6098 204.828 92.402C204.628 92.1942 204.437 91.9824 204.249 91.7666C204.057 91.5549 203.87 91.3392 203.686 91.1194C203.506 90.9116 203.33 90.6958 203.163 90.4841C202.755 89.9806 202.367 89.4679 201.997 88.9458C201.825 88.706 201.661 88.4663 201.501 88.2226C201.33 87.9748 201.166 87.7231 201.01 87.4714C200.847 87.2197 200.691 86.9639 200.539 86.7043C200.535 86.6954 200.53 86.6873 200.523 86.6803C200.224 86.1728 199.936 85.6614 199.668 85.142C199.393 84.6146 199.133 84.0818 198.89 83.5437C198.766 83.276 198.646 83.0043 198.534 82.7327C198.303 82.1852 198.087 81.6379 197.887 81.0824C197.788 80.8148 197.696 80.547 197.604 80.2753C197.601 80.2574 197.596 80.2399 197.588 80.2234C197.404 79.672 197.237 79.1166 197.089 78.5573C197.085 78.5493 197.085 78.5413 197.081 78.5333C197.005 78.2576 196.933 77.9819 196.869 77.7022C196.805 77.4585 196.749 77.2147 196.697 76.967C196.637 76.6913 196.578 76.4156 196.526 76.136C196.498 75.9921 196.47 75.8482 196.446 75.7044C196.422 75.5845 196.402 75.4607 196.382 75.3408C196.362 75.221 196.342 75.097 196.322 74.9732C196.282 74.7295 196.246 74.4858 196.214 74.2421C196.174 73.9543 196.142 73.6667 196.11 73.375C196.074 73.0274 196.042 72.6797 196.015 72.3281C195.995 72.0924 195.983 71.8526 195.971 71.6129C195.959 71.3932 195.947 71.1734 195.943 70.9537C195.939 70.942 195.939 70.9293 195.943 70.9177C195.942 70.9172 195.942 70.9166 195.941 70.9159C195.941 70.9152 195.941 70.9145 195.941 70.9137C195.941 70.913 195.941 70.9122 195.941 70.9115C195.942 70.9108 195.942 70.9102 195.943 70.9097C195.939 70.9057 195.939 70.9057 195.943 70.9017C195.942 70.9012 195.942 70.9006 195.941 70.8999C195.941 70.8992 195.941 70.8985 195.941 70.8977C195.941 70.897 195.941 70.8962 195.941 70.8956C195.942 70.8949 195.942 70.8942 195.943 70.8937C195.939 70.8058 195.935 70.7179 195.935 70.6301C195.927 70.3703 195.923 70.1106 195.923 69.8509C195.923 69.6151 195.927 69.3834 195.931 69.1477C195.939 68.82 195.951 68.4924 195.967 68.1647C195.967 68.0928 195.975 68.0249 195.979 67.953C195.983 67.8811 195.987 67.8131 195.991 67.7411C195.999 67.5893 196.011 67.4375 196.027 67.2856C196.026 67.2576 196.027 67.2296 196.031 67.2017C196.043 67.0299 196.058 66.8582 196.074 66.6864C196.106 66.3428 196.146 65.9952 196.19 65.6515C196.214 65.4797 196.234 65.3079 196.262 65.1361C196.278 65.0162 196.298 64.8924 196.318 64.7685C196.334 64.6446 196.354 64.5208 196.378 64.3969C196.406 64.2331 196.434 64.0652 196.466 63.8974C196.482 63.7975 196.502 63.6976 196.522 63.5977C196.598 63.1982 196.681 62.7987 196.773 62.3991C196.865 61.9956 196.969 61.596 197.081 61.1964C197.189 60.7929 197.308 60.3893 197.436 59.9858C197.496 59.782 197.56 59.5822 197.632 59.3825C197.764 58.9789 197.903 58.5793 198.059 58.1838C198.131 57.988 198.207 57.7882 198.291 57.5924C198.45 57.1969 198.618 56.8013 198.79 56.4137C198.878 56.2179 198.966 56.0222 199.061 55.8264C199.241 55.4388 199.429 55.0512 199.633 54.6717C199.828 54.2841 200.04 53.9045 200.256 53.5289C200.471 53.1533 200.695 52.7777 200.93 52.4062C201.038 52.2224 201.158 52.0346 201.282 51.8548C201.521 51.4872 201.773 51.1196 202.029 50.76C202.544 50.0327 203.099 49.3175 203.686 48.6223ZM196.023 67.2856C196.011 67.4375 195.999 67.5893 195.991 67.7411C195.999 67.5893 196.011 67.4375 196.027 67.2856C196.026 67.2576 196.027 67.2296 196.031 67.2017C196.027 67.2297 196.027 67.2577 196.023 67.2856ZM196.518 63.5977C196.502 63.6976 196.482 63.7975 196.466 63.8974C196.482 63.7975 196.502 63.6976 196.522 63.5977H196.518ZM206.465 94.0241V94.0281C206.465 94.0321 206.469 94.0321 206.473 94.0321L206.465 94.0241Z" fill="#3F3D56"/>
<path opacity="0.3" d="M207.616 95.0466C201.299 89.7134 197.218 82.1985 196.183 73.9941C195.148 65.7897 197.235 57.4958 202.029 50.7594C201.399 51.3938 200.79 52.0581 200.203 52.7525C197.414 56.0589 195.304 59.8825 193.993 64.0049C192.681 68.1273 192.194 72.4678 192.559 76.7786C192.924 81.0894 194.134 85.2861 196.12 89.129C198.106 92.9719 200.829 96.3857 204.134 99.1757C210.808 104.81 219.445 107.561 228.147 106.824C236.848 106.086 244.9 101.92 250.531 95.2428C251.118 94.5475 251.67 93.8355 252.188 93.1067C246.358 98.968 238.537 102.421 230.28 102.781C222.023 103.14 213.933 100.379 207.616 95.0466Z" fill="black"/>
</g>
<defs>
<clipPath id="clip0_1_79">
<rect width="363" height="181" fill="white"/>
</clipPath>
</defs>
</svg>
