<svg width="315" height="200" viewBox="0 0 315 200" fill="none" xmlns="http://www.w3.org/2000/svg">
<g clip-path="url(#clip0_1_118)">
<path d="M186.914 6.13568C209.591 -6.08132 238.372 0.323425 253.631 21.9858L253.112 22.3569C238.041 0.96188 209.612 -5.36222 187.214 6.70127C185.311 7.7264 183.474 8.87123 181.714 10.129C158.682 26.5777 153.234 58.8269 169.57 82.018L169.051 82.3891C152.511 58.9096 158.027 26.259 181.346 9.60596C183.128 8.33286 184.987 7.17382 186.914 6.13568Z" fill="#E6E6E6"/>
<path d="M307.046 58.3556L232.46 52.5131C231.302 52.4211 230.228 51.8704 229.473 50.9819C228.718 50.0933 228.344 48.9395 228.432 47.7735L231.666 11.2852C231.757 10.1195 232.304 9.03777 233.187 8.27749C234.069 7.51722 235.215 7.14044 236.373 7.22981L310.959 13.0723C312.117 13.1643 313.191 13.715 313.946 14.6035C314.701 15.4921 315.075 16.6459 314.987 17.8119L311.753 54.3001C311.662 55.4659 311.115 56.5476 310.232 57.3079C309.35 58.0682 308.204 58.445 307.046 58.3556Z" fill="#E6E6E6"/>
<path d="M289.428 50.1123C288.862 50.1123 288.293 50.0901 287.723 50.0455L239.521 46.2697C238.557 46.1943 237.618 45.9284 236.756 45.4873C235.894 45.0462 235.127 44.4385 234.499 43.6989C233.87 42.9593 233.392 42.1023 233.093 41.1769C232.793 40.2514 232.678 39.2756 232.753 38.3052L233.852 24.0787C234.005 22.1196 234.924 20.3018 236.407 19.0241C237.89 17.7465 239.816 17.1133 241.762 17.2635L304.094 22.146C306.039 22.3007 307.844 23.2261 309.113 24.7193C310.382 26.2124 311.011 28.1513 310.862 30.1107C310.442 35.5476 308.002 40.6253 304.03 44.3322C300.057 48.0391 294.844 50.1029 289.428 50.1123Z" fill="white"/>
<path d="M302.602 33.4557L241.499 28.6693C241.371 28.6593 241.247 28.6242 241.133 28.5659C241.019 28.5077 240.918 28.4274 240.835 28.3297C240.752 28.232 240.689 28.1188 240.649 27.9966C240.61 27.8744 240.595 27.7455 240.605 27.6173C240.614 27.4891 240.649 27.3642 240.707 27.2496C240.765 27.135 240.845 27.033 240.942 26.9494C241.039 26.8658 241.151 26.8023 241.273 26.7624C241.394 26.7226 241.522 26.7072 241.649 26.7172L302.753 31.5035C302.88 31.5135 303.004 31.5486 303.118 31.6069C303.232 31.6652 303.333 31.7454 303.416 31.8431C303.499 31.9408 303.563 32.054 303.602 32.1762C303.642 32.2985 303.657 32.4274 303.647 32.5555C303.637 32.6837 303.602 32.8087 303.544 32.9233C303.487 33.0379 303.407 33.1399 303.31 33.2235C303.213 33.3071 303.1 33.3706 302.979 33.4104C302.858 33.4503 302.73 33.4656 302.602 33.4557Z" fill="#E6E6E6"/>
<path d="M277.23 35.3484L241.2 32.5262C240.943 32.5059 240.705 32.3837 240.537 32.1864C240.37 31.9891 240.287 31.7329 240.307 31.4742C240.327 31.2154 240.448 30.9752 240.644 30.8064C240.84 30.6376 241.094 30.554 241.351 30.574L277.381 33.3962C277.509 33.4061 277.633 33.4412 277.747 33.4994C277.86 33.5577 277.962 33.638 278.045 33.7357C278.128 33.8334 278.191 33.9466 278.231 34.0689C278.27 34.1912 278.286 34.3201 278.276 34.4483C278.266 34.5766 278.231 34.7016 278.173 34.8162C278.115 34.9309 278.035 35.0329 277.938 35.1165C277.841 35.2001 277.729 35.2636 277.607 35.3034C277.486 35.3432 277.358 35.3585 277.23 35.3484Z" fill="#E6E6E6"/>
<path d="M285.167 39.8504L240.903 36.3831C240.775 36.3732 240.651 36.3381 240.537 36.2799C240.423 36.2216 240.322 36.1413 240.239 36.0436C240.156 35.9459 240.093 35.8327 240.053 35.7104C240.013 35.5881 239.998 35.4592 240.008 35.331C240.018 35.2027 240.053 35.0777 240.111 34.9631C240.169 34.8484 240.248 34.7464 240.345 34.6628C240.443 34.5792 240.555 34.5157 240.676 34.4759C240.798 34.4361 240.926 34.4208 241.053 34.4309L285.318 37.8982C285.575 37.9185 285.814 38.0407 285.981 38.2379C286.149 38.4352 286.231 38.6914 286.211 38.9502C286.191 39.209 286.07 39.4491 285.874 39.618C285.679 39.7868 285.424 39.8704 285.167 39.8504Z" fill="#E6E6E6"/>
<path d="M302.055 107.888L227.469 102.045C226.311 101.953 225.237 101.403 224.482 100.514C223.727 99.6256 223.353 98.4718 223.441 97.3058L226.675 60.8175C226.766 59.6518 227.313 58.5701 228.196 57.8098C229.078 57.0495 230.224 56.6728 231.382 56.7621L305.968 62.6046C307.126 62.6966 308.2 63.2473 308.955 64.1358C309.71 65.0244 310.084 66.1782 309.996 67.3442L306.762 103.832C306.671 104.998 306.124 106.08 305.242 106.84C304.359 107.601 303.213 107.977 302.055 107.888Z" fill="#E6E6E6"/>
<path d="M284.418 99.6438C283.86 99.6438 283.298 99.6218 282.732 99.5778L234.53 95.802C233.566 95.7265 232.627 95.4607 231.765 95.0196C230.903 94.5785 230.136 93.9708 229.508 93.2312C228.879 92.4916 228.401 91.6347 228.102 90.7092C227.802 89.7837 227.687 88.8079 227.762 87.8375L228.861 73.6111C228.936 72.6406 229.2 71.6945 229.638 70.8268C230.076 69.9591 230.68 69.1868 231.414 68.5539C232.149 67.9211 233 67.4401 233.919 67.1384C234.838 66.8368 235.807 66.7204 236.771 66.7959L299.103 71.6785C300.066 71.7539 301.006 72.0198 301.868 72.4609C302.729 72.9021 303.496 73.5097 304.125 74.2493C304.753 74.9889 305.231 75.8459 305.531 76.7714C305.83 77.6969 305.946 78.6727 305.871 79.6431C305.444 85.0809 303 90.1576 299.025 93.8635C295.05 97.5695 289.835 99.633 284.418 99.6438Z" fill="white"/>
<path d="M297.611 82.988L236.507 78.2016C236.38 78.1916 236.256 78.1565 236.142 78.0982C236.028 78.04 235.927 77.9597 235.844 77.862C235.761 77.7643 235.698 77.6511 235.658 77.5289C235.619 77.4067 235.604 77.2778 235.614 77.1496C235.623 77.0214 235.658 76.8965 235.716 76.7819C235.774 76.6673 235.854 76.5653 235.951 76.4817C236.048 76.3981 236.16 76.3346 236.282 76.2947C236.403 76.2549 236.531 76.2395 236.658 76.2495L297.762 81.0358C297.889 81.0458 298.013 81.0809 298.127 81.1392C298.241 81.1975 298.342 81.2777 298.425 81.3754C298.508 81.4731 298.571 81.5863 298.611 81.7085C298.651 81.8308 298.666 81.9597 298.656 82.0878C298.646 82.216 298.611 82.341 298.553 82.4556C298.495 82.5702 298.416 82.6722 298.319 82.7558C298.222 82.8394 298.109 82.9029 297.988 82.9427C297.866 82.9826 297.738 82.9979 297.611 82.988Z" fill="#E6E6E6"/>
<path d="M272.239 84.8808L236.209 82.0585C236.082 82.0486 235.958 82.0135 235.844 81.9553C235.73 81.897 235.629 81.8168 235.546 81.7191C235.463 81.6214 235.399 81.5081 235.36 81.3859C235.32 81.2636 235.305 81.1346 235.315 81.0064C235.325 80.8782 235.36 80.7532 235.418 80.6385C235.476 80.5239 235.555 80.4218 235.652 80.3382C235.749 80.2547 235.862 80.1911 235.983 80.1513C236.105 80.1115 236.233 80.0962 236.36 80.1063L272.39 82.9286C272.647 82.9488 272.886 83.0711 273.053 83.2683C273.221 83.4656 273.304 83.7218 273.284 83.9806C273.264 84.2393 273.142 84.4795 272.947 84.6483C272.751 84.8171 272.496 84.9007 272.239 84.8808Z" fill="#E6E6E6"/>
<path d="M280.176 89.3827L235.911 85.9154C235.654 85.8952 235.416 85.7731 235.248 85.5758C235.08 85.3785 234.997 85.1222 235.017 84.8633C235.037 84.6044 235.159 84.3642 235.355 84.1954C235.551 84.0265 235.805 83.943 236.062 83.9632L280.327 87.4305C280.584 87.4506 280.823 87.5728 280.99 87.7701C281.158 87.9674 281.241 88.2236 281.221 88.4825C281.201 88.7414 281.08 88.9817 280.884 89.1505C280.688 89.3193 280.433 89.4028 280.176 89.3827Z" fill="#E6E6E6"/>
<path d="M112.33 88.8237C111.383 86.6634 110.868 84.3365 110.814 81.9758C110.761 79.6151 111.169 77.2669 112.017 75.0652C112.865 72.8636 114.135 70.8516 115.755 69.1442C117.375 67.4367 119.313 66.0673 121.458 65.114C123.604 64.1607 125.915 63.6423 128.259 63.5883C130.604 63.5343 132.936 63.9458 135.123 64.7993C137.309 65.6528 139.307 66.9316 141.003 68.5626C142.699 70.1937 144.059 72.1451 145.006 74.3054L144.423 74.5644C143.51 72.4812 142.198 70.5993 140.563 69.0264C138.928 67.4535 137.001 66.2204 134.892 65.3973C132.784 64.5742 130.535 64.1774 128.274 64.2295C126.013 64.2815 123.785 64.7815 121.715 65.7007C119.646 66.62 117.778 67.9406 116.215 69.5871C114.653 71.2337 113.429 73.1739 112.611 75.297C111.794 77.4201 111.4 79.6846 111.451 81.961C111.503 84.2375 111.999 86.4815 112.912 88.5647L112.33 88.8237Z" fill="#E6E6E6"/>
<path d="M297.435 189.101C304.727 185.622 310.158 178.622 309.311 170.93C302.769 176.263 293.863 179.242 284.669 179.17C281.088 179.143 277.078 178.776 274.476 180.799C272.856 182.058 272.126 184.057 272.034 186.049C271.942 188.041 272.421 190.058 272.898 192.048L272.753 192.519C281.314 193.068 290.144 192.58 297.435 189.101Z" fill="#F2F2F2"/>
<path d="M309.131 170.911C306.311 176.451 301.422 181.069 295.345 183.772C294.014 184.398 292.596 184.817 291.141 185.016C289.658 185.172 288.16 184.975 286.767 184.441C285.446 183.963 284.144 183.342 282.744 183.153C282.058 183.057 281.36 183.101 280.692 183.282C280.023 183.464 279.398 183.779 278.853 184.209C277.559 185.223 276.787 186.625 276.088 188.024C275.311 189.577 274.533 191.203 273.012 192.262C272.828 192.39 273.084 192.657 273.268 192.529C275.914 190.687 276.296 187.357 278.399 185.127C278.893 184.564 279.508 184.12 280.197 183.83C280.885 183.541 281.631 183.411 282.376 183.453C283.805 183.559 285.148 184.198 286.482 184.692C287.837 185.231 289.292 185.471 290.748 185.396C292.216 185.266 293.653 184.898 295.004 184.307C297.942 183.076 300.662 181.372 303.057 179.262C305.703 176.958 307.887 174.166 309.492 171.036C309.59 170.844 309.228 170.721 309.131 170.911Z" fill="white"/>
<path d="M297.381 182.992C298.148 183.903 299.179 184.552 300.33 184.846C301.48 185.14 302.693 185.067 303.8 184.634C304.012 184.545 303.839 184.231 303.627 184.321C302.597 184.725 301.467 184.794 300.396 184.518C299.326 184.242 298.368 183.635 297.658 182.782C297.509 182.6 297.233 182.81 297.381 182.992Z" fill="white"/>
<path d="M287.408 184.759C287.549 183.677 287.917 182.637 288.486 181.708C289.055 180.779 289.813 179.982 290.71 179.369C290.894 179.24 290.637 178.974 290.454 179.102C289.522 179.742 288.735 180.573 288.145 181.541C287.555 182.509 287.175 183.592 287.031 184.718C287.005 184.933 287.382 184.973 287.408 184.759Z" fill="white"/>
<path d="M305.27 176.722C304.919 176.451 304.643 176.094 304.468 175.685C304.293 175.276 304.224 174.829 304.269 174.386C304.298 174.172 303.921 174.133 303.892 174.345C303.845 174.835 303.921 175.328 304.114 175.78C304.306 176.232 304.608 176.628 304.993 176.931C305.028 176.966 305.073 176.987 305.121 176.993C305.17 176.998 305.218 176.986 305.26 176.96C305.277 176.946 305.292 176.929 305.302 176.909C305.313 176.889 305.319 176.866 305.32 176.844C305.321 176.821 305.317 176.798 305.308 176.777C305.3 176.756 305.286 176.738 305.27 176.722Z" fill="white"/>
<path d="M285.254 154.666C285.231 154.799 285.209 154.932 285.183 155.066C284.871 156.847 284.395 158.596 283.76 160.288C283.713 160.419 283.663 160.552 283.612 160.682C282.006 164.779 279.564 168.491 276.443 171.578C275.171 172.839 273.8 173.994 272.342 175.031C270.311 176.479 267.966 177.893 266.68 179.844C266.543 180.045 266.421 180.256 266.314 180.474L272.107 192.276C272.135 192.298 272.16 192.321 272.188 192.343L272.396 192.822C272.476 192.773 272.558 192.72 272.639 192.671C272.686 192.643 272.731 192.612 272.778 192.584C272.809 192.564 272.84 192.545 272.869 192.529C272.879 192.522 272.89 192.516 272.897 192.51C272.926 192.494 272.951 192.476 272.978 192.461C273.438 192.169 273.897 191.873 274.354 191.574C274.357 191.573 274.357 191.573 274.358 191.57C277.833 189.282 281.101 186.697 283.786 183.714C283.867 183.624 283.951 183.534 284.029 183.439C285.222 182.098 286.291 180.65 287.222 179.113C287.724 178.278 288.177 177.413 288.579 176.525C289.612 174.229 290.224 171.765 290.385 169.25C290.712 164.213 289.228 159.004 285.539 154.972C285.444 154.869 285.351 154.768 285.254 154.666Z" fill="#F2F2F2"/>
<path d="M285.106 154.746C286.719 160.977 286.163 167.548 283.431 173.139C282.863 174.381 282.08 175.511 281.119 176.477C280.09 177.427 278.825 178.078 277.458 178.363C276.148 178.675 274.756 178.855 273.58 179.455C273.003 179.745 272.503 180.17 272.12 180.692C271.737 181.215 271.483 181.822 271.377 182.463C271.09 184.025 271.455 185.633 271.871 187.199C272.334 188.938 272.845 190.74 272.418 192.464C272.366 192.673 272.738 192.76 272.789 192.551C273.532 189.553 271.579 186.521 271.654 183.487C271.689 182.072 272.201 180.693 273.506 179.908C274.648 179.222 276.083 179.036 277.413 178.731C278.757 178.468 280.016 177.878 281.081 177.012C282.096 176.101 282.928 175.003 283.535 173.778C284.925 171.078 285.818 168.147 286.172 165.127C286.596 161.623 286.355 158.07 285.46 154.656C285.404 154.441 285.05 154.533 285.106 154.746Z" fill="white"/>
<path d="M284.43 171.372C286.813 172.124 289.341 171.224 290.341 169.281C290.439 169.089 290.099 168.918 290 169.11C289.064 170.93 286.725 171.747 284.497 171.044C284.262 170.97 284.197 171.298 284.43 171.372Z" fill="white"/>
<path d="M278.152 178.285C277.542 177.358 277.125 176.316 276.927 175.222C276.729 174.128 276.754 173.005 277.001 171.921C277.051 171.712 276.68 171.625 276.629 171.834C276.375 172.962 276.352 174.132 276.561 175.27C276.769 176.408 277.205 177.492 277.842 178.455C277.967 178.651 278.276 178.48 278.152 178.285Z" fill="white"/>
<path d="M286.122 161.772C285.654 161.719 285.203 161.562 284.802 161.314C284.401 161.065 284.06 160.73 283.802 160.334C283.68 160.136 283.371 160.308 283.492 160.504C283.779 160.941 284.156 161.31 284.599 161.586C285.042 161.861 285.538 162.036 286.055 162.099C286.157 162.112 286.253 162.076 286.274 161.979C286.28 161.932 286.267 161.884 286.239 161.845C286.21 161.807 286.169 161.78 286.122 161.772Z" fill="white"/>
<path d="M297.552 105.305L293.12 81.5502L284.42 70.02L277.972 74.2644C278.883 79.2398 285.775 88.5281 285.775 88.5281L291.883 106.9C291.859 106.995 291.836 107.092 291.82 107.191C291.723 107.772 291.776 108.369 291.975 108.923C292.174 109.477 292.512 109.97 292.956 110.355C293.399 110.739 293.934 111.002 294.508 111.117C295.082 111.233 295.676 111.198 296.232 111.015C296.789 110.832 297.289 110.507 297.684 110.073C298.079 109.638 298.357 109.108 298.49 108.534C298.622 107.96 298.606 107.362 298.441 106.796C298.277 106.23 297.971 105.717 297.552 105.305Z" fill="#FFB8B8"/>
<path d="M278.145 76.7743L285.445 70.8088L285.459 70.7773C286.824 67.6623 283.793 62.321 281.009 58.3888C280.091 57.093 278.717 56.1968 277.167 55.8814C275.617 55.566 274.006 55.8549 272.66 56.6898C271.671 57.3124 270.874 58.2011 270.36 59.2556C269.847 60.3101 269.636 61.4883 269.752 62.657L270.366 68.608L278.145 76.7743Z" fill="#3F3D56"/>
<path d="M252.347 194.994L247.49 194.994L245.18 176.131L252.348 176.131L252.347 194.994Z" fill="#FFB8B8"/>
<path d="M253.586 193.397L252.219 193.397L246.882 191.212L244.021 193.397H244.021C242.404 193.397 240.854 194.044 239.711 195.195C238.568 196.345 237.926 197.906 237.926 199.534V199.734L253.586 199.734L253.586 193.397Z" fill="#2F2E41"/>
<path d="M273.898 194.994L269.041 194.994L266.73 176.131L273.899 176.131L273.898 194.994Z" fill="#FFB8B8"/>
<path d="M275.137 193.397L273.77 193.397L268.432 191.212L265.572 193.397H265.571C263.955 193.397 262.405 194.044 261.261 195.195C260.118 196.345 259.476 197.906 259.476 199.534V199.734L275.136 199.734L275.137 193.397Z" fill="#2F2E41"/>
<path d="M281.303 113.746C281.303 113.746 281.871 120.599 280.453 127.166C279.035 133.732 279.035 152.227 279.035 152.227L275.916 188.265L266.558 187.409L264.006 127.166L254.932 147.437L255.783 150.292L254.65 151.006C254.65 151.006 255.5 156.573 254.932 156.573C254.365 156.573 252.947 157.43 252.947 157.43L254.082 186.838L244.441 186.552L241.038 145.153L244.724 121.455L245.008 116.887L246.284 116.94L246.934 115.031L248.127 111.748L281.303 113.746Z" fill="#2F2E41"/>
<path d="M281.794 115.186L281.844 115.114C284.543 111.31 280.484 102.167 279.872 100.841L282.45 99.9987L281.87 95.0285L281.594 92.8127L283.565 90.8282L283.571 90.7787L284.705 80.7858L286.354 74.1485C286.976 71.6394 286.923 69.009 286.201 66.5273C285.479 64.0456 284.114 61.802 282.247 60.0269L278.435 56.4079L273.802 49.5059H266.331L263.77 54.3777C261.286 54.9557 259.083 56.3926 257.543 58.4381C256.004 60.4836 255.225 63.0081 255.344 65.5718L255.925 78.3493L253.652 94.2583L253.651 97.1374L251.093 99.9995L251.652 102.811L249.705 103.651L248.846 107.69C248.49 108.162 246.142 111.314 246.142 112.176C246.142 112.305 246.237 112.431 246.44 112.569C248.04 113.66 256.884 115.884 260.798 114.307C264.967 112.629 281.54 115.147 281.707 115.172L281.794 115.186Z" fill="#3F3D56"/>
<path d="M216.826 199.619C216.826 199.719 216.865 199.816 216.936 199.888C217.007 199.959 217.103 200 217.203 200H306.45C306.551 200 306.647 199.96 306.718 199.888C306.789 199.817 306.829 199.72 306.829 199.619C306.829 199.517 306.789 199.42 306.718 199.349C306.647 199.277 306.551 199.237 306.45 199.237H217.205C217.105 199.237 217.009 199.276 216.938 199.348C216.867 199.419 216.826 199.515 216.826 199.616V199.619Z" fill="#CCCCCC"/>
<path d="M269.101 47.2778C274.566 47.2778 278.996 42.8175 278.996 37.3154C278.996 31.8133 274.566 27.353 269.101 27.353C263.637 27.353 259.207 31.8133 259.207 37.3154C259.207 42.8175 263.637 47.2778 269.101 47.2778Z" fill="#FFB8B8"/>
<path d="M268.154 47.4391C269.686 47.4233 271.214 47.2758 272.721 46.9981C274.214 46.652 277.506 44.0885 278.404 42.5741C279.07 41.4489 279.47 39.7085 279.689 38.4467C279.984 36.7768 279.927 35.0631 279.522 33.4167C279.117 31.7703 278.374 30.2278 277.339 28.8892C276.94 28.3284 276.399 27.8866 275.771 27.6104C275.715 27.5902 275.658 27.5725 275.601 27.5576C274.691 27.3417 273.866 26.8568 273.232 26.1654C273.109 26.0254 272.976 25.8945 272.834 25.7738C272.122 25.2002 271.286 24.8043 270.394 24.6185C268.952 24.2698 266.889 24.7068 264.263 25.9182C262.944 26.5269 261.48 26.3571 260.351 26.1411C260.288 26.1305 260.223 26.1368 260.163 26.1593C260.103 26.1818 260.05 26.2198 260.009 26.2694C259.543 26.7332 258.92 27.0022 258.265 27.0224C257.864 27.0505 257.458 27.6207 256.968 28.3632C256.857 28.5318 256.727 28.7285 256.633 28.8485L256.614 28.6231L256.393 28.8808C256.047 29.286 255.808 29.7728 255.698 30.296C255.589 30.8192 255.613 31.3617 255.768 31.8731C255.923 32.3845 256.204 32.8481 256.585 33.2207C256.966 33.5933 257.434 33.8629 257.946 34.0042C258.352 34.1018 258.767 34.1574 259.185 34.1701C259.438 34.1864 259.7 34.2033 259.951 34.2405C260.759 34.3853 261.515 34.7384 262.147 35.2655C262.779 35.7926 263.264 36.4755 263.555 37.2477C263.624 37.4262 263.732 37.5863 263.872 37.7158C264.012 37.8453 264.18 37.9407 264.362 37.9946C264.545 38.0485 264.737 38.0595 264.924 38.0266C265.112 37.9938 265.289 37.9181 265.443 37.8054C265.698 37.5941 266 37.4483 266.324 37.3802C266.648 37.3121 266.983 37.3239 267.301 37.4145C267.578 37.5601 267.796 37.797 267.92 38.0856C268.07 38.4068 268.311 38.6758 268.613 38.8583C269.643 39.3597 269.773 41.6958 269.458 43.6542C269.154 45.542 268.493 46.9191 267.851 47.003C267.356 47.0676 267.3 47.1045 267.267 47.1937L267.237 47.2736L267.294 47.3461C267.571 47.439 267.864 47.4707 268.154 47.4391Z" fill="#2F2E41"/>
<path d="M159.416 98.7897C170.282 98.7897 179.09 89.9207 179.09 78.9803C179.09 68.0398 170.282 59.1708 159.416 59.1708C148.551 59.1708 139.743 68.0398 139.743 78.9803C139.743 89.9207 148.551 98.7897 159.416 98.7897Z" fill="#FFA952"/>
<path d="M265.875 76.0323L259.385 71.8535C255.253 74.7315 249.668 84.8706 249.668 84.8706L235.533 98.0188C234.944 98.1206 234.392 98.3767 233.933 98.7614C233.474 99.1461 233.123 99.6459 232.917 100.21C232.71 100.775 232.655 101.384 232.757 101.977C232.859 102.57 233.114 103.125 233.496 103.587C233.879 104.049 234.376 104.401 234.937 104.609C235.498 104.816 236.103 104.871 236.691 104.768C237.28 104.664 237.831 104.407 238.29 104.021C238.748 103.635 239.097 103.135 239.302 102.57L259.001 88.7519L265.875 76.0323Z" fill="#FFB8B8"/>
<path d="M265.256 77.7279L269.578 67.283L268.015 61.5108C267.704 60.3787 267.085 59.3568 266.227 58.5606C265.37 57.7643 264.308 57.2254 263.162 57.0047C261.607 56.7162 260.001 57.033 258.669 57.8911C257.337 58.7492 256.378 60.0846 255.987 61.6272C254.803 66.3067 253.894 72.39 256.285 74.7975L256.309 74.8219L265.256 77.7279Z" fill="#3F3D56"/>
<path d="M13.5506 193.956C5.08997 189.584 -1.0484 181.134 0.234952 172.104C7.74319 178.633 18.1243 182.476 28.9577 182.738C33.1772 182.84 37.9152 182.559 40.9057 185.04C42.7664 186.584 43.5527 188.966 43.5875 191.317C43.6223 193.667 42.9824 196.025 42.3468 198.351L42.5001 198.912C32.3944 199.236 22.0112 198.329 13.5506 193.956Z" fill="#F2F2F2"/>
<path d="M0.447158 172.088C3.5638 178.721 9.15234 184.345 16.2102 187.758C17.7555 188.545 19.4099 189.092 21.1175 189.382C22.8582 189.621 24.6305 189.445 26.2912 188.868C27.8646 188.355 29.4212 187.672 31.0781 187.502C31.8895 187.415 32.7101 187.493 33.4909 187.731C34.2717 187.97 34.9966 188.365 35.6222 188.893C37.1092 190.135 37.9666 191.816 38.7388 193.491C39.5961 195.35 40.4526 197.295 42.205 198.599C42.4173 198.757 42.1051 199.062 41.8931 198.904C38.8443 196.635 38.518 192.697 36.1238 189.991C35.0066 188.728 33.4304 187.788 31.5004 187.869C29.8127 187.94 28.207 188.643 26.6179 189.174C25.0008 189.758 23.2781 189.987 21.5659 189.844C19.8418 189.636 18.1624 189.148 16.5926 188.401C13.1772 186.84 10.0366 184.73 7.29338 182.154C4.26172 179.341 1.79201 175.969 0.0171314 172.222C-0.0905272 171.993 0.3402 171.861 0.447158 172.088Z" fill="white"/>
<path d="M13.8414 186.762C11.9866 188.892 8.72228 189.612 6.21843 188.456C5.97176 188.342 6.18752 187.98 6.43452 188.094C7.63266 188.608 8.96087 188.732 10.2324 188.447C11.5038 188.162 12.6546 187.483 13.5229 186.505C13.7054 186.295 14.0228 186.553 13.8414 186.762Z" fill="white"/>
<path d="M25.5239 189.219C25.3977 187.939 25.0036 186.7 24.3676 185.584C23.7316 184.469 22.8682 183.501 21.8341 182.745C21.6224 182.587 21.9346 182.282 22.146 182.441C23.2204 183.229 24.1167 184.238 24.7757 185.4C25.4348 186.563 25.8417 187.853 25.9696 189.185C25.9924 189.439 25.5466 189.472 25.5239 189.219Z" fill="white"/>
<path d="M4.78045 179.08C5.20358 178.773 5.54194 178.363 5.76344 177.888C5.98494 177.413 6.08224 176.889 6.0461 176.365C6.01972 176.112 6.4656 176.08 6.49182 176.331C6.52915 176.91 6.4211 177.488 6.17764 178.013C5.93418 178.539 5.56318 178.994 5.0989 179.336C5.05677 179.376 5.0027 179.399 4.94548 179.404C4.88826 179.408 4.83126 179.393 4.78374 179.36C4.76321 179.343 4.74662 179.322 4.73513 179.298C4.72364 179.274 4.71752 179.248 4.71721 179.221C4.71689 179.194 4.72239 179.168 4.73332 179.143C4.74424 179.119 4.76033 179.097 4.78045 179.08Z" fill="white"/>
<path d="M29.1781 153.849C29.1997 154.007 29.2212 154.164 29.2461 154.323C29.5475 156.433 30.0443 158.511 30.7297 160.528C30.7799 160.685 30.8334 160.843 30.8886 160.998C32.6288 165.885 35.3685 170.35 38.9304 174.104C40.3814 175.637 41.954 177.049 43.6327 178.326C45.9725 180.108 48.6826 181.862 50.125 184.208C50.2781 184.45 50.4141 184.703 50.532 184.964L43.2699 198.649C43.2365 198.674 43.2064 198.7 43.173 198.725L42.91 199.282C42.817 199.221 42.7221 199.156 42.6291 199.095C42.5749 199.06 42.5224 199.022 42.4682 198.987C42.4326 198.963 42.3971 198.938 42.3632 198.918C42.3514 198.91 42.3396 198.902 42.331 198.895C42.2972 198.875 42.2684 198.853 42.238 198.835C41.7063 198.473 41.1769 198.108 40.6496 197.738C40.6462 197.737 40.6462 197.737 40.6445 197.733C36.6359 194.907 32.8819 191.739 29.8295 188.124C29.7377 188.015 29.6425 187.906 29.554 187.79C28.1977 186.167 26.9923 184.421 25.9527 182.575C25.3928 181.572 24.8911 180.537 24.45 179.475C23.3186 176.732 22.6892 173.805 22.5922 170.837C22.3936 164.891 24.335 158.81 28.831 154.199C28.9461 154.081 29.0596 153.966 29.1781 153.849Z" fill="#F2F2F2"/>
<path d="M29.3496 153.95C27.2177 161.229 27.6289 168.99 30.64 175.68C31.2633 177.164 32.1436 178.525 33.2396 179.699C34.4168 180.856 35.8831 181.672 37.4831 182.058C39.0142 182.475 40.6478 182.739 42.0105 183.49C42.6793 183.854 43.2529 184.373 43.6845 185.003C44.1162 185.633 44.3935 186.358 44.4939 187.116C44.7748 188.967 44.2854 190.848 43.7364 192.678C43.1267 194.709 42.4582 196.813 42.8973 198.859C42.9505 199.107 42.5096 199.196 42.4565 198.948C41.6925 195.388 44.1057 191.889 44.1304 188.313C44.1419 186.645 43.5896 185.001 42.081 184.027C40.7618 183.176 39.0776 182.903 37.5222 182.493C35.9492 182.133 34.4875 181.391 33.2649 180.331C32.1035 179.219 31.1631 177.895 30.4941 176.428C28.9566 173.196 28.0128 169.71 27.7083 166.138C27.3385 161.995 27.755 157.818 28.9355 153.83C29.0092 153.579 29.4228 153.7 29.3496 153.95Z" fill="white"/>
<path d="M29.5288 173.56C26.6935 174.356 23.7486 173.202 22.6435 170.875C22.5346 170.646 22.9418 170.456 23.0508 170.686C24.0861 172.866 26.8119 173.916 29.4623 173.172C29.7412 173.094 29.8061 173.483 29.5288 173.56Z" fill="white"/>
<path d="M36.668 181.94C37.4211 180.871 37.9506 179.659 38.2244 178.378C38.4982 177.097 38.5105 175.773 38.2607 174.486C38.2085 174.238 38.6493 174.15 38.7014 174.398C38.9585 175.737 38.9427 177.115 38.6548 178.448C38.3669 179.781 37.813 181.041 37.0266 182.152C36.8723 182.379 36.5145 182.166 36.668 181.94Z" fill="white"/>
<path d="M27.8921 162.188C28.4453 162.143 28.9818 161.975 29.4634 161.697C29.945 161.42 30.3598 161.038 30.6784 160.581C30.8295 160.353 31.1872 160.566 31.037 160.793C30.683 161.297 30.2243 161.717 29.6928 162.025C29.1612 162.333 28.5695 162.521 27.9586 162.576C27.8373 162.587 27.7259 162.54 27.705 162.426C27.7 162.37 27.7166 162.314 27.7514 162.27C27.7862 162.225 27.8365 162.196 27.8921 162.188Z" fill="white"/>
<path d="M54.7734 85.2622L55.4108 91.2141L55.0357 99.0187L72.2047 96.9649L73.818 85.2622L71.7624 85.2824L54.7734 85.2622Z" fill="#FFB6B6"/>
<path d="M45.8683 193.322H49.6219L51.4085 178.744H45.8683V193.322Z" fill="#FFB6B6"/>
<path d="M44.6432 190.733L50.6402 190.373V192.96L56.3416 196.924C56.6233 197.12 56.8353 197.401 56.9469 197.727C57.0585 198.053 57.0638 198.406 56.962 198.735C56.8601 199.064 56.6565 199.352 56.3808 199.556C56.1052 199.76 55.7719 199.87 55.4297 199.87H48.2901L47.0595 197.311L46.579 199.87H43.8871L44.6432 190.733Z" fill="#2F2E41"/>
<path d="M66.9532 193.322H70.7069L72.4931 178.744H66.9532V193.322Z" fill="#FFB6B6"/>
<path d="M65.7282 190.733L71.7251 190.373V192.96L77.4266 196.924C77.7082 197.12 77.9203 197.401 78.0319 197.727C78.1435 198.053 78.1487 198.406 78.0469 198.735C77.945 199.064 77.7414 199.352 77.4658 199.556C77.1901 199.76 76.8568 199.87 76.5146 199.87H69.375L68.1444 197.311L67.6639 199.87H64.972L65.7282 190.733Z" fill="#2F2E41"/>
<path d="M44.2487 180.75H44.2895L45.0114 157.046C44.5443 156.139 44.3072 155.13 44.3213 154.108C44.3354 153.086 44.6002 152.083 45.0922 151.189L45.1956 151.001L44.9276 149.75C44.5834 148.143 44.7413 146.468 45.3797 144.955L46.0532 122.844C43.6472 107.144 55.1136 96.9045 55.1136 96.9045H72.2903L75.978 109.662C78.4159 133.577 77.9735 156.881 74.105 179.459L74.2104 179.513C74.5902 179.645 74.7531 180.174 74.5743 180.696C74.3956 181.217 73.9428 181.533 73.5631 181.401L64.4918 181.083C64.112 180.951 63.9491 180.422 64.1279 179.9C64.3066 179.379 64.7594 179.063 65.1391 179.195L65.7559 179.509L64.4405 156.636L64.5865 152.458L64.2858 147.718L62.8953 126.399L57.6322 152.616L52.2562 181.014C52.4044 181.149 52.5085 181.326 52.5546 181.522C52.6008 181.718 52.5868 181.924 52.5146 182.112C52.4423 182.299 52.3152 182.461 52.15 182.574C51.9848 182.688 51.7893 182.748 51.5893 182.748H44.2487C44.1183 182.748 43.9891 182.722 43.8686 182.672C43.748 182.622 43.6384 182.549 43.5461 182.456C43.4538 182.363 43.3806 182.253 43.3306 182.132C43.2807 182.01 43.2549 181.88 43.2549 181.749C43.2549 181.618 43.2807 181.488 43.3306 181.366C43.3806 181.245 43.4538 181.135 43.5461 181.042C43.6384 180.949 43.748 180.876 43.8686 180.826C43.9891 180.775 44.1183 180.75 44.2487 180.75Z" fill="#2F2E41"/>
<path d="M57.7714 54.8054C62.8597 54.8054 66.9846 50.6521 66.9846 45.5288C66.9846 40.4054 62.8597 36.2521 57.7714 36.2521C52.6832 36.2521 48.5583 40.4054 48.5583 45.5288C48.5583 50.6521 52.6832 54.8054 57.7714 54.8054Z" fill="#FFB6B6"/>
<path d="M17.3999 88.3862C18.6947 85.3595 20.4728 82.5665 22.6637 80.1181C20.8085 83.0952 19.7483 86.5042 19.5856 90.0149C20.2573 90.4374 20.9601 90.8075 21.6878 91.1221C23.8748 92.0457 26.2066 92.5731 28.5759 92.6801C29.8528 88.3964 32.0569 84.451 35.0294 81.1276C32.8872 84.5675 31.8099 88.5714 31.9347 92.6297C34.5772 92.3996 37.1809 91.8378 39.685 90.9572C43.4449 89.6549 47.0944 87.7098 49.6946 84.6846C52.5086 81.4103 53.8956 77.0895 54.3434 72.7821C54.7913 68.4781 54.3702 64.1338 53.9457 59.8264C53.7452 57.7737 55.443 55.4114 55.2425 53.3586H55.1088C54.2164 52.127 53.3074 50.8651 52.8696 49.4046C52.4351 47.9475 52.5487 46.2279 53.548 45.0804C54.1079 44.4808 54.8144 44.0399 55.5967 43.8017C55.6703 43.7074 55.7505 43.6166 55.834 43.5257C57.3473 41.9073 59.1284 40.566 61.0978 39.5616C59.6774 40.6418 58.7283 41.8633 58.2871 43.1253C59.517 42.8527 60.7469 42.5812 61.9768 42.3109C62.3878 41.8719 62.8206 41.4541 63.2735 41.0591C63.9319 40.4836 64.1491 40.4399 64.9346 39.8981C64.3005 40.4598 63.8089 41.1659 63.5008 41.9576C65.0816 41.5571 66.6624 40.9548 67.4846 39.5852C68.8482 37.3204 67.2272 34.2649 64.9646 32.9121C63.3188 31.9759 61.4223 31.5843 59.5433 31.7927C57.6644 32.001 55.898 32.7987 54.4938 34.0731C51.2219 31.6468 46.563 31.6872 42.9235 33.501C40.5207 34.752 38.4509 36.5649 36.8877 38.7876C37.7945 38.6704 38.7073 38.6064 39.6215 38.5958C38.3346 38.7854 37.1092 39.2739 36.0421 40.0226C35.57 40.7606 35.1372 41.5233 34.7454 42.3075C34.488 42.8224 34.2452 43.344 34.0168 43.8723C32.6164 47.0826 31.7041 50.5016 30.7582 53.8802C29.6554 57.8174 28.4723 61.7815 26.4068 65.3048C23.24 70.6622 18.2444 74.6755 12.3533 76.5948C11.862 81.0469 14.021 85.4014 17.3999 88.3862Z" fill="#2F2E41"/>
<path d="M67.0493 61.009L65.2611 60.3329L63.0063 56.6619L54.9746 57.3227L53.0224 61.2589L48.3195 64.8751L50.3762 75.7813L53.5714 89.029L74.9609 86.3369L74.9382 76.3642C74.9382 76.3642 78.8034 68.4852 72.5598 65.5329L67.0493 61.009Z" fill="#FFA952"/>
<path d="M100.019 95.6014C99.6037 95.7693 99.157 95.8434 98.7103 95.8186C98.2635 95.7938 97.8276 95.6707 97.4332 95.4579C97.0389 95.2451 96.6956 94.9478 96.4277 94.587C96.1598 94.2262 95.9737 93.8106 95.8825 93.3696L72.0334 78.8392L76.3926 73.775L98.4647 89.6503C99.2108 89.5452 99.9692 89.7193 100.596 90.1396C101.223 90.5599 101.675 91.1972 101.867 91.9308C102.059 92.6643 101.976 93.4432 101.636 94.1197C101.295 94.7962 100.72 95.3234 100.019 95.6014Z" fill="#FFB6B6"/>
<path d="M64.0866 71.9488C64.0866 71.9488 62.9469 73.1035 65.8067 75.0021C68.0962 76.5221 78.3084 84.0334 81.9285 85.2215C81.8832 85.7569 82.0161 86.2923 82.3062 86.7432C82.5963 87.1942 83.0273 87.5352 83.5311 87.7124L86.8088 80.4599C86.0993 78.8019 84.9644 79.1858 84.3673 79.5617L80.4086 76.5641L70.6879 66.7904L64.8958 71.0995L64.0866 71.9488Z" fill="#FFA952"/>
<path d="M54.5523 34.3255C53.4449 35.9709 52.7295 37.8513 52.4618 39.8205C52.194 41.7897 52.3812 43.7946 53.0086 45.679" fill="#FD6584"/>
<path d="M7.81076 199.619C7.81061 199.669 7.82032 199.718 7.83931 199.765C7.8583 199.811 7.8862 199.853 7.92142 199.889C7.95663 199.924 7.99846 199.952 8.0445 199.971C8.09054 199.99 8.13988 200 8.18968 200H97.435C97.5355 200 97.6319 199.96 97.7029 199.888C97.774 199.817 97.8139 199.72 97.8139 199.619C97.8139 199.517 97.774 199.42 97.7029 199.349C97.6319 199.277 97.5355 199.237 97.435 199.237H8.18968C8.13988 199.237 8.09055 199.247 8.04451 199.266C7.99847 199.285 7.95663 199.313 7.92142 199.348C7.8862 199.384 7.8583 199.426 7.83931 199.472C7.82031 199.519 7.81062 199.568 7.81076 199.619Z" fill="#CCCCCC"/>
<path d="M41.8133 112.905C41.5909 112.984 41.4087 113.149 41.3066 113.363C41.2044 113.577 41.1908 113.823 41.2685 114.047L53.7023 150.13C53.7806 150.354 53.944 150.538 54.1565 150.64C54.369 150.743 54.6134 150.757 54.836 150.679L127.184 125.12C127.406 125.041 127.588 124.877 127.69 124.663C127.793 124.449 127.806 124.203 127.728 123.979L115.295 87.8952C115.216 87.6712 115.053 87.4877 114.84 87.3849C114.628 87.2821 114.383 87.2683 114.161 87.3467L41.8133 112.905Z" fill="#E6E6E6"/>
<path d="M60.1254 145.471C58.7016 145.471 57.3129 145.026 56.1501 144.199C54.9872 143.372 54.1073 142.202 53.6313 140.851L46.803 121.399C46.1948 119.666 46.2951 117.761 47.0817 116.103C47.8684 114.445 49.2769 113.17 50.9976 112.557L87.5628 99.5446C94.4076 97.1172 101.929 97.5229 108.477 100.672C115.025 103.822 120.065 109.458 122.491 116.345C123.099 118.077 122.999 119.982 122.212 121.64C121.426 123.298 120.017 124.574 118.297 125.186L62.4119 145.075C61.6777 145.337 60.9044 145.471 60.1254 145.471Z" fill="white"/>
<path d="M108.615 107.126L75.8742 118.692C75.4129 118.855 74.8412 118.42 74.5972 117.72C74.3533 117.02 74.5295 116.32 74.9908 116.157L107.732 104.59C108.193 104.427 108.765 104.863 109.009 105.563C109.253 106.263 109.077 106.964 108.615 107.126Z" fill="#E6E6E6"/>
<path d="M111.147 114.394L78.4066 125.96C77.9453 126.123 77.3736 125.688 77.1296 124.987C76.8857 124.287 77.0619 123.588 77.5232 123.425L110.264 111.858C110.725 111.695 111.297 112.131 111.541 112.831C111.785 113.531 111.609 114.231 111.147 114.394Z" fill="#E6E6E6"/>
<path d="M71.4441 122.646C71.7957 123.644 71.9665 124.697 71.9484 125.755C71.9415 126.24 71.8939 126.722 71.8063 127.199C71.5272 128.737 70.8496 130.174 69.8419 131.365C68.8343 132.555 67.5324 133.456 66.0679 133.977C64.6033 134.499 63.0281 134.621 61.5014 134.333C59.9747 134.044 58.5507 133.355 57.3734 132.335C57.2545 132.232 57.1388 132.127 57.0262 132.018C56.0646 131.09 55.3243 129.955 54.8606 128.698C54.3969 127.441 54.222 126.095 54.3489 124.76C54.4758 123.425 54.9013 122.136 55.5934 120.991C56.2856 119.845 57.2263 118.872 58.3452 118.145C59.4641 117.418 60.732 116.955 62.0538 116.792C63.3756 116.628 64.717 116.768 65.9774 117.202C67.2377 117.635 68.3843 118.35 69.3311 119.293C70.2779 120.236 71.0003 121.382 71.4441 122.646Z" fill="#E4E4E4"/>
<path d="M63.4957 126.962C64.4269 126.962 65.1817 126.202 65.1817 125.264C65.1817 124.327 64.4269 123.567 63.4957 123.567C62.5645 123.567 61.8097 124.327 61.8097 125.264C61.8097 126.202 62.5645 126.962 63.4957 126.962Z" fill="#FD6584"/>
<path d="M57.0261 132.018C57.459 131.006 57.9706 129.463 59.1556 130.025C59.7411 130.28 60.7895 131.057 61.2153 130.154L64.5488 123.128C64.612 122.997 64.7006 122.88 64.8093 122.784C64.918 122.688 65.0447 122.614 65.182 122.568C65.3192 122.522 65.4642 122.504 65.6085 122.515C65.7527 122.526 65.8933 122.567 66.0219 122.633L71.9484 125.755C71.9414 126.24 71.8939 126.722 71.8063 127.199L57.3733 132.335L57.0261 132.018Z" fill="#3F3D56"/>
<path d="M58.7466 111.268C58.3295 111.105 57.9532 110.851 57.6439 110.526C57.3346 110.2 57.1 109.81 56.9566 109.384C56.8132 108.957 56.7644 108.504 56.8138 108.056C56.8631 107.608 57.0094 107.177 57.2422 106.792L49.6974 79.7724L56.317 79.0759L61.6518 105.854C62.2677 106.291 62.7032 106.94 62.8756 107.678C63.048 108.417 62.9454 109.193 62.5873 109.86C62.2292 110.528 61.6404 111.04 60.9325 111.299C60.2247 111.558 59.4469 111.547 58.7466 111.268Z" fill="#FFB6B6"/>
<path d="M48.5812 64.9401C48.5812 64.9401 46.9655 64.9985 47.7641 68.3526C48.4035 71.0377 50.7517 87.8824 52.5877 91.241C52.1911 91.6006 51.9247 92.0828 51.8304 92.6117C51.736 93.1406 51.8191 93.6861 52.0665 94.1621L59.3823 91.124C59.9899 89.4254 59.5194 87.8833 58.8284 87.7468L57.9736 82.8343L56.714 66.3542L49.7484 64.8769L48.5812 64.9401Z" fill="#FFA952"/>
<path d="M114.484 136.032L104.366 136.454C104.15 136.464 103.935 136.424 103.736 136.337C103.538 136.251 103.361 136.121 103.22 135.956C103.08 135.795 102.978 135.605 102.922 135.399C102.866 135.193 102.857 134.977 102.896 134.767C103.672 130.504 103.446 126.118 102.235 121.959C102.142 121.641 102.161 121.3 102.289 120.994C102.417 120.689 102.646 120.437 102.938 120.283C107.082 118.115 110.965 118.005 114.479 119.956C114.663 120.057 114.823 120.196 114.948 120.366C115.073 120.535 115.16 120.73 115.202 120.937C116.117 125.475 116.336 130.128 115.852 134.733C115.819 135.079 115.662 135.402 115.41 135.641C115.159 135.88 114.83 136.019 114.484 136.032Z" fill="#FFA952"/>
<path d="M114.056 129.365L106.32 129.687C106.225 129.691 106.129 129.676 106.04 129.643C105.95 129.61 105.868 129.56 105.798 129.495C105.727 129.43 105.67 129.351 105.63 129.264C105.59 129.177 105.567 129.083 105.563 128.987C105.56 128.891 105.574 128.795 105.607 128.705C105.64 128.614 105.69 128.532 105.755 128.461C105.82 128.39 105.898 128.333 105.984 128.293C106.071 128.252 106.164 128.23 106.26 128.226L113.996 127.903C114.091 127.899 114.186 127.914 114.276 127.947C114.365 127.98 114.448 128.031 114.518 128.096C114.588 128.161 114.645 128.239 114.685 128.326C114.725 128.413 114.748 128.508 114.752 128.604C114.756 128.7 114.741 128.795 114.708 128.886C114.675 128.976 114.625 129.058 114.56 129.129C114.496 129.2 114.418 129.257 114.331 129.297C114.245 129.338 114.151 129.361 114.056 129.365Z" fill="white"/>
<path d="M113.951 126.802L106.214 127.125C106.022 127.133 105.834 127.063 105.693 126.932C105.551 126.801 105.467 126.618 105.459 126.424C105.451 126.23 105.52 126.041 105.65 125.899C105.781 125.756 105.962 125.671 106.154 125.663L113.891 125.341C114.083 125.333 114.271 125.402 114.412 125.533C114.554 125.665 114.638 125.847 114.646 126.041C114.654 126.235 114.585 126.424 114.455 126.567C114.325 126.709 114.143 126.794 113.951 126.802Z" fill="white"/>
<path d="M299.527 56.3405L289.486 55.0145C289.272 54.9867 289.066 54.9102 288.885 54.791C288.704 54.6717 288.552 54.5127 288.441 54.326C288.331 54.1437 288.263 53.9386 288.242 53.7262C288.222 53.5138 288.25 53.2994 288.324 53.0993C289.812 49.0328 290.334 44.6717 289.847 40.3655C289.809 40.036 289.886 39.7034 290.064 39.4244C290.242 39.1454 290.511 38.9373 290.825 38.8355C295.276 37.4128 299.121 37.973 302.251 40.4998C302.415 40.6308 302.549 40.7962 302.644 40.9847C302.738 41.1731 302.79 41.38 302.797 41.5909C302.928 46.2199 302.354 50.8417 301.095 55.2958C301.003 55.6314 300.794 55.9222 300.506 56.1143C300.217 56.3064 299.869 56.3867 299.527 56.3405Z" fill="#FFA952"/>
<path d="M300.237 49.6973L292.56 48.6834C292.465 48.671 292.374 48.6398 292.292 48.5918C292.209 48.5439 292.137 48.48 292.078 48.4038C292.02 48.3276 291.978 48.2407 291.953 48.148C291.928 48.0552 291.922 47.9585 291.934 47.8632C291.947 47.768 291.978 47.6762 292.025 47.593C292.073 47.5098 292.136 47.4369 292.212 47.3784C292.288 47.3199 292.374 47.2769 292.466 47.252C292.558 47.2271 292.654 47.2207 292.749 47.2332L300.426 48.2471C300.617 48.2723 300.79 48.3729 300.907 48.5267C301.025 48.6805 301.077 48.875 301.052 49.0673C301.027 49.2596 300.927 49.434 300.774 49.5522C300.621 49.6703 300.428 49.7225 300.237 49.6973Z" fill="white"/>
<path d="M300.568 47.1543L292.891 46.1404C292.796 46.1281 292.705 46.0971 292.622 46.0492C292.54 46.0013 292.467 45.9374 292.409 45.8612C292.35 45.785 292.308 45.698 292.283 45.6051C292.258 45.5123 292.252 45.4154 292.264 45.32C292.277 45.2247 292.307 45.1328 292.355 45.0495C292.403 44.9662 292.467 44.8932 292.542 44.8347C292.618 44.7762 292.705 44.7334 292.797 44.7086C292.889 44.6838 292.985 44.6775 293.08 44.6902L300.757 45.7041C300.852 45.7164 300.943 45.7474 301.026 45.7953C301.109 45.8432 301.181 45.9071 301.24 45.9833C301.298 46.0595 301.341 46.1466 301.365 46.2394C301.39 46.3323 301.397 46.4291 301.384 46.5245C301.372 46.6198 301.341 46.7117 301.293 46.795C301.245 46.8783 301.182 46.9513 301.106 47.0098C301.03 47.0683 300.944 47.1112 300.851 47.136C300.759 47.1607 300.663 47.167 300.568 47.1543Z" fill="white"/>
<path d="M165.785 75.9346H162.441V72.5683C162.441 71.7606 162.123 70.9859 161.555 70.4147C160.988 69.8435 160.219 69.5226 159.416 69.5226C158.614 69.5226 157.845 69.8435 157.278 70.4147C156.71 70.9859 156.392 71.7606 156.392 72.5683V75.9346H153.048C152.246 75.9346 151.477 76.2555 150.91 76.8266C150.342 77.3978 150.024 78.1725 150.024 78.9803C150.024 79.788 150.342 80.5627 150.91 81.1339C151.477 81.705 152.246 82.0259 153.048 82.0259H156.392V85.3922C156.392 86.2 156.71 86.9746 157.278 87.5458C157.845 88.117 158.614 88.4379 159.416 88.4379C160.219 88.4379 160.988 88.117 161.555 87.5458C162.123 86.9746 162.441 86.2 162.441 85.3922V82.0259H165.785C166.587 82.0259 167.356 81.705 167.923 81.1339C168.491 80.5627 168.809 79.788 168.809 78.9803C168.809 78.1725 168.491 77.3978 167.923 76.8266C167.356 76.2555 166.587 75.9346 165.785 75.9346Z" fill="white"/>
<path d="M274.053 13.6365C275.813 13.6365 277.241 12.1995 277.241 10.4269C277.241 8.65426 275.813 7.21725 274.053 7.21725C272.292 7.21725 270.865 8.65426 270.865 10.4269C270.865 12.1995 272.292 13.6365 274.053 13.6365Z" fill="#3F3D56"/>
<path d="M78.2347 104.366C79.9952 104.366 81.4224 102.929 81.4224 101.156C81.4224 99.3833 79.9952 97.9463 78.2347 97.9463C76.4742 97.9463 75.0471 99.3833 75.0471 101.156C75.0471 102.929 76.4742 104.366 78.2347 104.366Z" fill="#3F3D56"/>
</g>
<defs>
<clipPath id="clip0_1_118">
<rect width="315" height="200" fill="white"/>
</clipPath>
</defs>
</svg>
